<svg viewBox="-768 -396 1536 792" width="1536" height="792" style="background-color: rgb(255, 255, 255);" xmlns="http://www.w3.org/2000/svg"><path d="M-102.77601926267569,18.465983803026013L-181.97460670275012,15.566096165184337M-181.97460670275012,-34.60111328069172L-181.97460670275012,15.566096165184337M-181.97460670275012,15.566096165184337L-199.48261315616423,20.633906137365916M-102.77601926267569,-31.701225642850044L-181.97460670275012,-34.60111328069172M-181.97460670275012,-34.60111328069172L-199.48261315616423,-29.533303308510142M-103.91551302666504,-1.7522047733137416L-183.11410046673947,-4.652092411155421M-183.11410046673947,-9.594505464582555L-183.11410046673947,-4.652092411155421M-183.11410046673947,-4.652092411155421L-184.77915251526477,-4.170131920783751M-103.91551302666504,-6.694617826740877L-183.11410046673947,-9.594505464582555M-183.11410046673947,-9.594505464582555L-184.77915251526477,-9.112544974210886" style="fill:none;stroke:rgb(0,0,0);stroke-width:1;stroke-linecap:round"></path><path d="M-183.11410046673947,-9.594505464582555L-183.11410046673947,-4.652092411155421L-184.77915251526477,-9.112544974210886zM-183.11410046673947,-4.652092411155421L-184.77915251526477,-4.170131920783752L-184.77915251526477,-9.112544974210886z" style="fill:rgb(153,221,255); fill-opacity: 0.4"></path><path d="M-184.77915251526477,-9.112544974210886L-184.77915251526477,-4.170131920783751M-184.77915251526477,-4.170131920783751L-105.58056507519034,-1.270244282942073M-184.77915251526477,-9.112544974210886L-105.58056507519034,-6.212657336369206" style="fill:none;stroke:rgb(0,0,0);stroke-width:1;stroke-linecap:round"></path><path d="M-102.77601926267569,18.465983803026017L-181.97460670275012,15.566096165184337L-181.97460670275012,-34.60111328069173z" style="fill:rgb(238,238,238); fill-opacity: 0.4"></path><path d="M-103.91551302666504,-1.7522047733137425L-183.11410046673947,-4.652092411155421L-183.11410046673947,-9.594505464582555zM-184.77915251526477,-4.170131920783752L-183.11410046673947,-4.652092411155421L-103.91551302666504,-1.7522047733137425zM-184.77915251526477,-9.112544974210886L-105.58056507519034,-6.212657336369206L-183.11410046673947,-9.594505464582555zM-184.77915251526477,-9.112544974210886L-184.77915251526477,-4.170131920783752L-105.58056507519034,-6.212657336369206z" style="fill:rgb(153,221,255); fill-opacity: 0.4"></path><path d="M-181.97460670275012,-34.60111328069173L-181.97460670275012,15.566096165184337L-199.48261315616423,-29.53330330851015zM-102.77601926267569,-31.701225642850044L-102.77601926267569,18.465983803026017L-181.97460670275012,-34.60111328069173z" style="fill:rgb(238,238,238); fill-opacity: 0.4"></path><path d="M-103.91551302666504,-6.694617826740877L-103.91551302666504,-1.7522047733137425L-183.11410046673947,-9.594505464582555z" style="fill:rgb(153,221,255); fill-opacity: 0.4"></path><path d="M-199.48261315616423,20.633906137365916L-181.97460670275012,15.566096165184337L-102.77601926267569,18.465983803026017z" style="fill:rgb(238,238,238); fill-opacity: 0.4"></path><path d="M-105.58056507519034,-6.212657336369206L-103.91551302666504,-6.694617826740877L-183.11410046673947,-9.594505464582555zM-105.58056507519034,-1.2702442829420728L-184.77915251526477,-4.170131920783752L-103.91551302666504,-1.7522047733137425z" style="fill:rgb(153,221,255); fill-opacity: 0.4"></path><path d="M-102.77601926267569,-31.701225642850044L-102.77601926267569,18.465983803026013M-102.77601926267569,18.465983803026013L-120.28402571608979,23.53379377520759" style="fill:none;stroke:rgb(0,0,0);stroke-width:1;stroke-linecap:round"></path><path d="M-184.77915251526477,-4.170131920783752L-105.58056507519034,-1.2702442829420728L-105.58056507519034,-6.212657336369206z" style="fill:rgb(153,221,255); fill-opacity: 0.4"></path><path d="M-102.77601926267569,-31.701225642850044L-120.28402571608979,-26.633415670668466M-103.91551302666504,-6.694617826740877L-103.91551302666504,-1.7522047733137416M-103.91551302666504,-1.7522047733137416L-105.58056507519034,-1.270244282942073M-103.91550962729016,-6.69461769815211L-103.91550962729016,-1.752204669274208M-103.91550962729016,-1.752204669274208L-105.58056167581546,-1.2702441789025383M-103.91550962729016,-1.752204669274208L-77.5530006290993,-2.902904407946358M-103.91551302666504,-6.694617826740877L-105.58056507519034,-6.212657336369206M-103.91550962729016,-6.69461769815211L-105.58056167581546,-6.212657207780441M-103.91550962729016,-6.69461769815211L-77.5530006290993,-2.902904407946358" style="fill:none;stroke:rgb(0,0,0);stroke-width:1;stroke-linecap:round"></path><path d="M-181.97460670275012,15.566096165184337L-199.48261315616423,20.633906137365916L-199.48261315616423,-29.53330330851015z" style="fill:rgb(238,238,238); fill-opacity: 0.4"></path><path d="M-103.91551407970864,-6.6946178652984845L-103.91551407970864,-1.7522048118713507L-105.58056612823394,-1.270244321499681z" style="fill:rgb(255,187,187); fill-opacity: 0.4"></path><path d="M-105.58056507519034,-1.2702442829420728L-103.91551302666504,-1.7522047733137425L-103.91551302666504,-6.694617826740877z" style="fill:rgb(153,221,255); fill-opacity: 0.4"></path><path d="M-103.91551407970864,-6.6946178652984845L-105.58056612823394,-1.270244321499681L-105.58056612823394,-6.212657374926815z" style="fill:rgb(255,187,187); fill-opacity: 0.4"></path><path d="M-105.58056507519034,-6.212657336369206L-105.58056507519034,-1.2702442829420728L-103.91551302666504,-6.694617826740877z" style="fill:rgb(153,221,255); fill-opacity: 0.4"></path><path d="M-105.58056507519034,-6.212657336369206L-105.58056507519034,-1.270244282942073M-105.58056167581546,-1.2702441789025383L-105.58056167581546,-6.212657207780441M-105.58056167581546,-1.2702441789025383L-77.5530006290993,-2.902904407946358M-105.58056167581546,-6.212657207780441L-77.5530006290993,-2.902904407946358" style="fill:none;stroke:rgb(0,0,0);stroke-width:1;stroke-linecap:round"></path><path d="M-103.91551407970864,-1.7522048118713507L-103.91551407970864,-6.6946178652984845L-77.55299889276246,-2.9029044885454223zM-105.58056612823394,-1.270244321499681L-103.91551407970864,-1.7522048118713507L-77.55299889276246,-2.9029044885454223z" style="fill:rgb(255,187,187); fill-opacity: 0.4"></path><path d="M-120.28402571608979,-26.633415670668466L-102.77601926267569,-31.701225642850044L-181.97460670275012,-34.60111328069173z" style="fill:rgb(238,238,238); fill-opacity: 0.4"></path><path d="M-103.91551407970864,-6.6946178652984845L-105.58056612823394,-6.212657374926815L-77.55299889276246,-2.9029044885454223z" style="fill:rgb(255,187,187); fill-opacity: 0.4"></path><path d="M-7.45901371361648,18.90656306015496L-75.84096987544339,16.40273065941729M-75.84096987544339,-26.91284099249101L-75.84096987544339,16.40273065941729M-75.84096987544339,16.40273065941729L-91.04072458597886,20.80240167288923" style="fill:none;stroke:rgb(0,0,0);stroke-width:1;stroke-linecap:round"></path><path d="M-105.58056612823394,-6.212657374926815L-105.58056612823394,-1.270244321499681L-77.55299889276246,-2.9029044885454223z" style="fill:rgb(255,187,187); fill-opacity: 0.4"></path><path d="M-7.45901371361648,-24.409008591753345L-75.84096987544339,-26.91284099249101M-75.84096987544339,-26.91284099249101L-91.04072458597886,-22.513169979019075" style="fill:none;stroke:rgb(0,0,0);stroke-width:1;stroke-linecap:round"></path><path d="M-120.28402571608979,23.533793775207595L-102.77601926267569,18.465983803026017L-102.77601926267569,-31.701225642850044zM-199.48261315616423,-29.53330330851015L-120.28402571608979,-26.633415670668466L-181.97460670275012,-34.60111328069173z" style="fill:rgb(238,238,238); fill-opacity: 0.4"></path><path d="M-199.48261315616423,-29.533303308510142L-199.48261315616423,20.633906137365916M-199.48261315616423,20.633906137365916L-120.28402571608979,23.53379377520759" style="fill:none;stroke:rgb(0,0,0);stroke-width:1;stroke-linecap:round"></path><path d="M-7.459013713616483,18.90656306015496L-75.84096987544339,16.402730659417294L-75.84096987544339,-26.91284099249101zM-120.28402571608979,23.533793775207595L-199.48261315616423,20.633906137365916L-102.77601926267569,18.465983803026017z" style="fill:rgb(238,238,238); fill-opacity: 0.4"></path><path d="M-10.804348464286848,0.36516493481490675L-79.18630462611375,-2.138667465922758M-79.18630462611375,-7.081080519349893L-79.18630462611375,-2.138667465922758M-79.18630462611375,-2.138667465922758L-80.85135667463902,-1.656706975551089M-10.804348464286848,-4.577248118612228L-79.18630462611375,-7.081080519349893M-79.18630462611375,-7.081080519349893L-80.85135667463902,-6.5991200289782235M-199.48261315616423,-29.533303308510142L-120.28402571608979,-26.633415670668466" style="fill:none;stroke:rgb(0,0,0);stroke-width:1;stroke-linecap:round"></path><path d="M-79.18630462611375,-7.081080519349893L-79.18630462611375,-2.1386674659227585L-80.85135667463904,-6.5991200289782235zM-79.18630462611375,-2.1386674659227585L-80.85135667463904,-1.656706975551089L-80.85135667463904,-6.5991200289782235z" style="fill:rgb(153,221,255); fill-opacity: 0.4"></path><path d="M-80.85135667463902,-6.5991200289782235L-80.85135667463902,-1.656706975551089M-80.85135667463902,-1.656706975551089L-12.469400512812134,0.8471254251865759M-80.85135667463902,-6.5991200289782235L-12.469400512812134,-4.095287628240558" style="fill:none;stroke:rgb(0,0,0);stroke-width:1;stroke-linecap:round"></path><path d="M-75.84096987544339,-26.91284099249101L-75.84096987544339,16.402730659417294L-91.04072458597888,-22.51316997901907zM-7.459013713616483,-24.409008591753345L-7.459013713616483,18.90656306015496L-75.84096987544339,-26.91284099249101z" style="fill:rgb(238,238,238); fill-opacity: 0.4"></path><path d="M-10.80434846428685,0.36516493481490664L-79.18630462611375,-2.1386674659227585L-79.18630462611375,-7.081080519349893z" style="fill:rgb(153,221,255); fill-opacity: 0.4"></path><path d="M-199.48261315616423,-29.53330330851015L-199.48261315616423,20.633906137365916L-120.28402571608979,-26.633415670668466z" style="fill:rgb(238,238,238); fill-opacity: 0.4"></path><path d="M-80.85135667463904,-1.656706975551089L-79.18630462611375,-2.1386674659227585L-10.80434846428685,0.36516493481490664z" style="fill:rgb(153,221,255); fill-opacity: 0.4"></path><path d="M-91.04072458597888,20.802401672889232L-75.84096987544339,16.402730659417294L-7.459013713616483,18.90656306015496zM-120.28402571608979,-26.633415670668466L-120.28402571608979,23.533793775207595L-102.77601926267569,-31.701225642850044z" style="fill:rgb(238,238,238); fill-opacity: 0.4"></path><path d="M-80.85135667463904,-6.5991200289782235L-12.46940051281214,-4.095287628240559L-79.18630462611375,-7.081080519349893z" style="fill:rgb(153,221,255); fill-opacity: 0.4"></path><path d="M-7.45901371361648,-24.409008591753345L-7.45901371361648,18.90656306015496M-7.45901371361648,18.90656306015496L-22.658768424151965,23.306234073626893" style="fill:none;stroke:rgb(0,0,0);stroke-width:1;stroke-linecap:round"></path><path d="M-80.85135667463904,-6.5991200289782235L-80.85135667463904,-1.656706975551089L-12.46940051281214,-4.095287628240559z" style="fill:rgb(153,221,255); fill-opacity: 0.4"></path><path d="M-199.48261315616423,20.633906137365916L-120.28402571608979,23.533793775207595L-120.28402571608979,-26.633415670668466z" style="fill:rgb(238,238,238); fill-opacity: 0.4"></path><path d="M-10.80434846428685,-4.5772481186122285L-10.80434846428685,0.36516493481490664L-79.18630462611375,-7.081080519349893z" style="fill:rgb(153,221,255); fill-opacity: 0.4"></path><path d="M-7.45901371361648,-24.409008591753345L-22.658768424151965,-20.009337578281407" style="fill:none;stroke:rgb(0,0,0);stroke-width:1;stroke-linecap:round"></path><path d="M-12.46940051281214,-4.095287628240559L-10.80434846428685,-4.5772481186122285L-79.18630462611375,-7.081080519349893z" style="fill:rgb(153,221,255); fill-opacity: 0.4"></path><path d="M-75.84096987544339,16.402730659417294L-91.04072458597888,20.802401672889232L-91.04072458597888,-22.51316997901907z" style="fill:rgb(238,238,238); fill-opacity: 0.4"></path><path d="M-12.46940051281214,0.8471254251865762L-80.85135667463904,-1.656706975551089L-10.80434846428685,0.36516493481490664zM-80.85135667463904,-1.656706975551089L-12.46940051281214,0.8471254251865762L-12.46940051281214,-4.095287628240559z" style="fill:rgb(153,221,255); fill-opacity: 0.4"></path><path d="M-22.658768424151972,-20.009337578281407L-7.459013713616483,-24.409008591753345L-75.84096987544339,-26.91284099249101z" style="fill:rgb(238,238,238); fill-opacity: 0.4"></path><path d="M-120.28402571608979,-26.633415670668466L-120.28402571608979,23.53379377520759M-10.804348464286848,-4.577248118612228L-10.804348464286848,0.36516493481490675M-10.804348464286848,0.36516493481490675L-12.469400512812134,0.8471254251865759M-10.804348324823813,-4.5772480565036355L-10.804348324823813,0.3651649969234995M-10.804348324823813,0.3651649969234995L-12.469400373349101,0.8471254872951691M-10.804348324823813,0.3651649969234995L15.932630889330909,-0.6484722673819778M-10.804348464286848,-4.577248118612228L-12.469400512812134,-4.095287628240558M-10.804348324823813,-4.5772480565036355L-12.469400373349101,-4.095287566131966M-10.804348324823813,-4.5772480565036355L15.932630889330909,-0.6484722673819778" style="fill:none;stroke:rgb(0,0,0);stroke-width:1;stroke-linecap:round"></path><path d="M-10.804348758360245,-4.577248129379842L-10.804348758360245,0.36516492404729295L-12.469400806885535,0.8471254144189626z" style="fill:rgb(255,187,187); fill-opacity: 0.4"></path><path d="M-12.46940051281214,0.8471254251865762L-10.80434846428685,0.36516493481490664L-10.80434846428685,-4.5772481186122285z" style="fill:rgb(153,221,255); fill-opacity: 0.4"></path><path d="M77.04136154582984,18.95108571782019L19.476036662250465,16.84330855418654M19.476036662250465,-19.62062216145241L19.476036662250465,16.84330855418654M19.476036662250465,16.84330855418654L6.584534753205194,20.574840302526603" style="fill:none;stroke:rgb(0,0,0);stroke-width:1;stroke-linecap:round"></path><path d="M-10.804348758360245,-4.577248129379842L-12.469400806885535,0.8471254144189626L-12.469400806885535,-4.0952876390081725z" style="fill:rgb(255,187,187); fill-opacity: 0.4"></path><path d="M-12.46940051281214,-4.095287628240559L-12.46940051281214,0.8471254251865762L-10.80434846428685,-4.5772481186122285z" style="fill:rgb(153,221,255); fill-opacity: 0.4"></path><path d="M-22.658768424151972,23.306234073626893L-7.459013713616483,18.90656306015496L-7.459013713616483,-24.409008591753345z" style="fill:rgb(238,238,238); fill-opacity: 0.4"></path><path d="M-12.469400512812134,-4.095287628240558L-12.469400512812134,0.8471254251865759M-12.469400373349101,0.8471254872951691L-12.469400373349101,-4.095287566131966M-12.469400373349101,0.8471254872951691L15.932630889330909,-0.6484722673819778" style="fill:none;stroke:rgb(0,0,0);stroke-width:1;stroke-linecap:round"></path><path d="M-10.804348758360245,0.36516492404729295L-10.804348758360245,-4.577248129379842L15.932630438558759,-0.6484723102117492z" style="fill:rgb(255,187,187); fill-opacity: 0.4"></path><path d="M-12.469400373349101,-4.095287566131966L15.932630889330909,-0.6484722673819778" style="fill:none;stroke:rgb(0,0,0);stroke-width:1;stroke-linecap:round"></path><path d="M-91.04072458597888,-22.51316997901907L-22.658768424151972,-20.009337578281407L-75.84096987544339,-26.91284099249101z" style="fill:rgb(238,238,238); fill-opacity: 0.4"></path><path d="M77.04136154582984,-17.512844997818757L19.476036662250465,-19.62062216145241M19.476036662250465,-19.62062216145241L6.584534753205194,-15.889090413112346" style="fill:none;stroke:rgb(0,0,0);stroke-width:1;stroke-linecap:round"></path><path d="M-12.469400806885535,0.8471254144189626L-10.804348758360245,0.36516492404729295L15.932630438558759,-0.6484723102117492zM-10.804348758360245,-4.577248129379842L-12.469400806885535,-4.0952876390081725L15.932630438558759,-0.6484723102117492z" style="fill:rgb(255,187,187); fill-opacity: 0.4"></path><path d="M-91.04072458597886,-22.513169979019075L-91.04072458597886,20.80240167288923M-91.04072458597886,20.80240167288923L-22.658768424151965,23.306234073626893M75.96858774370908,-0.6878767111937828L18.403262860129708,-2.795653874827434M18.403262860129708,-7.738066928254568L18.403262860129708,-2.795653874827434M18.403262860129708,-2.795653874827434L16.73821081160442,-2.3136933844557652M75.96858774370908,-5.630289764620917L18.403262860129708,-7.738066928254568M18.403262860129708,-7.738066928254568L16.73821081160442,-7.256106437882899" style="fill:none;stroke:rgb(0,0,0);stroke-width:1;stroke-linecap:round"></path><path d="M-12.469400806885535,-4.0952876390081725L-12.469400806885535,0.8471254144189626L15.932630438558759,-0.6484723102117492z" style="fill:rgb(255,187,187); fill-opacity: 0.4"></path><path d="M-22.658768424151972,23.306234073626893L-91.04072458597888,20.802401672889232L-7.459013713616483,18.90656306015496z" style="fill:rgb(238,238,238); fill-opacity: 0.4"></path><path d="M18.403262860129704,-7.738066928254568L18.403262860129704,-2.7956538748274333L16.738210811604418,-7.256106437882899z" style="fill:rgb(153,221,255); fill-opacity: 0.4"></path><path d="M77.04136154582983,18.95108571782019L19.47603666225046,16.843308554186542L19.47603666225046,-19.620622161452406z" style="fill:rgb(238,238,238); fill-opacity: 0.4"></path><path d="M18.403262860129704,-2.7956538748274333L16.738210811604418,-2.3136933844557643L16.738210811604418,-7.256106437882899z" style="fill:rgb(153,221,255); fill-opacity: 0.4"></path><path d="M-91.04072458597886,-22.513169979019075L-22.658768424151965,-20.009337578281407M16.73821081160442,-7.256106437882899L16.73821081160442,-2.3136933844557652M16.73821081160442,-2.3136933844557652L74.3035356951838,-0.20591622082211358M16.73821081160442,-7.256106437882899L74.3035356951838,-5.148329274249248" style="fill:none;stroke:rgb(0,0,0);stroke-width:1;stroke-linecap:round"></path><path d="M75.96858774370908,-0.6878767111937824L18.403262860129704,-2.7956538748274333L18.403262860129704,-7.738066928254568zM16.738210811604418,-2.3136933844557643L18.403262860129704,-2.7956538748274333L75.96858774370908,-0.6878767111937824z" style="fill:rgb(153,221,255); fill-opacity: 0.4"></path><path d="M19.47603666225046,-19.620622161452406L19.47603666225046,16.843308554186542L6.584534753205194,-15.889090413112342z" style="fill:rgb(238,238,238); fill-opacity: 0.4"></path><path d="M16.738210811604418,-7.256106437882899L74.3035356951838,-5.148329274249248L18.403262860129704,-7.738066928254568z" style="fill:rgb(153,221,255); fill-opacity: 0.4"></path><path d="M-91.04072458597888,-22.51316997901907L-91.04072458597888,20.802401672889232L-22.658768424151972,-20.009337578281407zM77.04136154582983,-17.512844997818757L77.04136154582983,18.95108571782019L19.47603666225046,-19.620622161452406z" style="fill:rgb(238,238,238); fill-opacity: 0.4"></path><path d="M16.738210811604418,-7.256106437882899L16.738210811604418,-2.3136933844557643L74.3035356951838,-5.148329274249248z" style="fill:rgb(153,221,255); fill-opacity: 0.4"></path><path d="M-22.658768424151972,-20.009337578281407L-22.658768424151972,23.306234073626893L-7.459013713616483,-24.409008591753345zM6.584534753205194,20.574840302526606L19.47603666225046,16.843308554186542L77.04136154582983,18.95108571782019z" style="fill:rgb(238,238,238); fill-opacity: 0.4"></path><path d="M75.96858774370908,-5.630289764620918L75.96858774370908,-0.6878767111937824L18.403262860129704,-7.738066928254568z" style="fill:rgb(153,221,255); fill-opacity: 0.4"></path><path d="M77.04136154582984,-17.512844997818757L77.04136154582984,18.95108571782019M77.04136154582984,18.95108571782019L64.14985963678457,22.682617466160256" style="fill:none;stroke:rgb(0,0,0);stroke-width:1;stroke-linecap:round"></path><path d="M74.3035356951838,-5.148329274249248L75.96858774370908,-5.630289764620918L18.403262860129704,-7.738066928254568zM74.3035356951838,-0.20591622082211317L16.738210811604418,-2.3136933844557643L75.96858774370908,-0.6878767111937824z" style="fill:rgb(153,221,255); fill-opacity: 0.4"></path><path d="M-91.04072458597888,20.802401672889232L-22.658768424151972,23.306234073626893L-22.658768424151972,-20.009337578281407z" style="fill:rgb(238,238,238); fill-opacity: 0.4"></path><path d="M16.738210811604418,-2.3136933844557643L74.3035356951838,-0.20591622082211317L74.3035356951838,-5.148329274249248z" style="fill:rgb(153,221,255); fill-opacity: 0.4"></path><path d="M77.04136154582984,-17.512844997818757L64.14985963678457,-13.781313249478693" style="fill:none;stroke:rgb(0,0,0);stroke-width:1;stroke-linecap:round"></path><path d="M19.47603666225046,16.843308554186542L6.584534753205194,20.574840302526606L6.584534753205194,-15.889090413112342z" style="fill:rgb(238,238,238); fill-opacity: 0.4"></path><path d="M75.9685864582522,-5.630289619988337L75.9685864582522,-0.6878767629550523M75.9685864582522,-0.6878767629550523L74.30353440972692,-0.20591627258338277M75.9685864582522,-0.6878767629550523L102.41225907235011,-1.07424203843546M75.96858774370908,-5.630289764620917L75.96858774370908,-0.6878767111937828M75.96858774370908,-0.6878767111937828L74.3035356951838,-0.20591622082211358M75.9685864582522,-5.630289619988337L74.30353440972692,-5.148329129616668M75.9685864582522,-5.630289619988337L102.41225907235011,-1.07424203843546M75.96858774370908,-5.630289764620917L74.3035356951838,-5.148329274249248" style="fill:none;stroke:rgb(0,0,0);stroke-width:1;stroke-linecap:round"></path><path d="M74.3035356951838,-0.20591622082211317L75.96858774370908,-0.6878767111937824L75.96858774370908,-5.630289764620918z" style="fill:rgb(153,221,255); fill-opacity: 0.4"></path><path d="M75.96858820860592,-5.630289747598535L75.96858820860592,-0.6878766941714004L74.30353616008063,-0.2059162037997313z" style="fill:rgb(255,187,187); fill-opacity: 0.4"></path><path d="M74.3035356951838,-5.148329274249248L74.3035356951838,-0.20591622082211317L75.96858774370908,-5.630289764620918z" style="fill:rgb(153,221,255); fill-opacity: 0.4"></path><path d="M75.96858820860592,-5.630289747598535L74.30353616008063,-0.2059162037997313L74.30353616008063,-5.148329257226866z" style="fill:rgb(255,187,187); fill-opacity: 0.4"></path><path d="M-22.658768424151965,-20.009337578281407L-22.658768424151965,23.306234073626893" style="fill:none;stroke:rgb(0,0,0);stroke-width:1;stroke-linecap:round"></path><path d="M64.14985963678457,-13.781313249478693L77.04136154582983,-17.512844997818757L19.47603666225046,-19.620622161452406z" style="fill:rgb(238,238,238); fill-opacity: 0.4"></path><path d="M74.30353440972692,-0.20591627258338277L74.30353440972692,-5.148329129616668M74.30353440972692,-0.20591627258338277L102.41225907235011,-1.07424203843546M74.3035356951838,-5.148329274249248L74.3035356951838,-0.20591622082211358" style="fill:none;stroke:rgb(0,0,0);stroke-width:1;stroke-linecap:round"></path><path d="M75.96858820860592,-0.6878766941714004L75.96858820860592,-5.630289747598535L102.41226088248203,-1.0742418911690899z" style="fill:rgb(255,187,187); fill-opacity: 0.4"></path><path d="M74.30353440972692,-5.148329129616668L102.41225907235011,-1.07424203843546" style="fill:none;stroke:rgb(0,0,0);stroke-width:1;stroke-linecap:round"></path><path d="M74.30353616008063,-0.2059162037997313L75.96858820860592,-0.6878766941714004L102.41226088248203,-1.0742418911690899zM75.96858820860592,-5.630289747598535L74.30353616008063,-5.148329257226866L102.41226088248203,-1.0742418911690899zM74.30353616008063,-5.148329257226866L74.30353616008063,-0.2059162037997313L102.41226088248203,-1.0742418911690899z" style="fill:rgb(255,187,187); fill-opacity: 0.4"></path><path d="M64.14985963678457,22.682617466160256L77.04136154582983,18.95108571782019L77.04136154582983,-17.512844997818757z" style="fill:rgb(238,238,238); fill-opacity: 0.4"></path><path d="M150.725109062493,18.599554666392788L103.97641248072489,16.887832630879753M103.97641248072489,-12.724460290791438L103.97641248072489,16.887832630879753M103.97641248072489,16.887832630879753L93.39316231455825,19.951225420510173" style="fill:none;stroke:rgb(0,0,0);stroke-width:1;stroke-linecap:round"></path><path d="M6.584534753205194,-15.889090413112342L64.14985963678457,-13.781313249478693L19.47603666225046,-19.620622161452406z" style="fill:rgb(238,238,238); fill-opacity: 0.4"></path><path d="M6.584534753205194,-15.889090413112346L6.584534753205194,20.574840302526603M6.584534753205194,20.574840302526603L64.14985963678457,22.682617466160256M150.725109062493,-11.012738255278407L103.97641248072489,-12.724460290791438M103.97641248072489,-12.724460290791438L93.39316231455825,-9.661067501161021" style="fill:none;stroke:rgb(0,0,0);stroke-width:1;stroke-linecap:round"></path><path d="M64.14985963678457,22.682617466160256L6.584534753205194,20.574840302526606L77.04136154582983,18.95108571782019z" style="fill:rgb(238,238,238); fill-opacity: 0.4"></path><path d="M6.584534753205194,-15.889090413112346L64.14985963678457,-13.781313249478693" style="fill:none;stroke:rgb(0,0,0);stroke-width:1;stroke-linecap:round"></path><path d="M150.725109062493,18.599554666392788L103.97641248072489,16.887832630879757L103.97641248072489,-12.724460290791436zM6.584534753205194,-15.889090413112342L6.584534753205194,20.574840302526606L64.14985963678457,-13.781313249478693zM103.97641248072489,-12.724460290791436L103.97641248072489,16.887832630879757L93.39316231455825,-9.66106750116102zM64.14985963678457,-13.781313249478693L64.14985963678457,22.682617466160256L77.04136154582983,-17.512844997818757zM150.725109062493,-11.012738255278409L150.725109062493,18.599554666392788L103.97641248072489,-12.724460290791436z" style="fill:rgb(238,238,238); fill-opacity: 0.4"></path><path d="M146.5085984889452,3.3399469401979798L99.75990190717712,1.6282249046849504M99.75990190717712,-3.3141881487421836L99.75990190717712,1.6282249046849504M99.75990190717712,1.6282249046849504L98.09484985865183,2.11018539505662M146.5085984889452,-1.6024661132291544L99.75990190717712,-3.3141881487421836M99.75990190717712,-3.3141881487421836L98.09484985865183,-2.8322276583705146" style="fill:none;stroke:rgb(0,0,0);stroke-width:1;stroke-linecap:round"></path><path d="M93.39316231455825,19.951225420510173L103.97641248072489,16.887832630879757L150.725109062493,18.599554666392788z" style="fill:rgb(238,238,238); fill-opacity: 0.4"></path><path d="M99.7599019071771,-3.3141881487421836L99.7599019071771,1.6282249046849508L98.09484985865183,-2.8322276583705137z" style="fill:rgb(153,221,255); fill-opacity: 0.4"></path><path d="M150.725109062493,-11.012738255278407L150.725109062493,18.599554666392788M150.725109062493,18.599554666392788L140.14185889632637,21.662947456023204" style="fill:none;stroke:rgb(0,0,0);stroke-width:1;stroke-linecap:round"></path><path d="M99.7599019071771,1.6282249046849508L98.09484985865183,2.1101853950566203L98.09484985865183,-2.8322276583705137z" style="fill:rgb(153,221,255); fill-opacity: 0.4"></path><path d="M6.584534753205194,20.574840302526606L64.14985963678457,22.682617466160256L64.14985963678457,-13.781313249478693z" style="fill:rgb(238,238,238); fill-opacity: 0.4"></path><path d="M98.09484985865183,-2.8322276583705146L98.09484985865183,2.11018539505662M98.09484985865183,2.11018539505662L144.8435464404199,3.821907430569649M98.09484985865183,-2.8322276583705146L144.8435464404199,-1.1205056228574852" style="fill:none;stroke:rgb(0,0,0);stroke-width:1;stroke-linecap:round"></path><path d="M146.5085984889452,3.3399469401979807L99.7599019071771,1.6282249046849508L99.7599019071771,-3.3141881487421836z" style="fill:rgb(153,221,255); fill-opacity: 0.4"></path><path d="M150.725109062493,-11.012738255278407L140.14185889632637,-7.94934546564799" style="fill:none;stroke:rgb(0,0,0);stroke-width:1;stroke-linecap:round"></path><path d="M98.09484985865183,2.1101853950566203L99.7599019071771,1.6282249046849508L146.5085984889452,3.3399469401979807z" style="fill:rgb(153,221,255); fill-opacity: 0.4"></path><path d="M103.97641248072489,16.887832630879757L93.39316231455825,19.951225420510173L93.39316231455825,-9.66106750116102z" style="fill:rgb(238,238,238); fill-opacity: 0.4"></path><path d="M64.14985963678457,-13.781313249478693L64.14985963678457,22.682617466160256" style="fill:none;stroke:rgb(0,0,0);stroke-width:1;stroke-linecap:round"></path><path d="M98.09484985865183,-2.8322276583705137L144.8435464404199,-1.1205056228574843L99.7599019071771,-3.3141881487421836z" style="fill:rgb(153,221,255); fill-opacity: 0.4"></path><path d="M140.14185889632637,-7.949345465647991L150.725109062493,-11.012738255278409L103.97641248072489,-12.724460290791436z" style="fill:rgb(238,238,238); fill-opacity: 0.4"></path><path d="M98.09484985865183,-2.8322276583705137L98.09484985865183,2.1101853950566203L144.8435464404199,-1.1205056228574843zM146.5085984889452,-1.6024661132291544L146.5085984889452,3.3399469401979807L99.7599019071771,-3.3141881487421836zM144.8435464404199,-1.1205056228574843L146.5085984889452,-1.6024661132291544L99.7599019071771,-3.3141881487421836z" style="fill:rgb(153,221,255); fill-opacity: 0.4"></path><path d="M140.14185889632637,21.662947456023204L150.725109062493,18.599554666392788L150.725109062493,-11.012738255278409z" style="fill:rgb(238,238,238); fill-opacity: 0.4"></path><path d="M144.8435464404199,3.8219074305696497L98.09484985865183,2.1101853950566203L146.5085984889452,3.3399469401979807z" style="fill:rgb(153,221,255); fill-opacity: 0.4"></path><path d="M93.39316231455825,-9.66106750116102L140.14185889632637,-7.949345465647991L103.97641248072489,-12.724460290791436z" style="fill:rgb(238,238,238); fill-opacity: 0.4"></path><path d="M98.09484985865183,2.1101853950566203L144.8435464404199,3.8219074305696497L144.8435464404199,-1.1205056228574843z" style="fill:rgb(153,221,255); fill-opacity: 0.4"></path><path d="M93.39316231455825,-9.661067501161021L93.39316231455825,19.951225420510173M93.39316231455825,19.951225420510173L140.14185889632637,21.662947456023204M146.5085984889452,-1.6024661132291544L146.5085984889452,3.3399469401979798M146.5085984889452,3.3399469401979798L144.8435464404199,3.821907430569649M146.50859983347462,-1.602465767174627L146.50859983347462,3.3399470898586574M146.50859983347462,3.3399470898586574L144.84354778494932,3.8219075802303273M146.50859983347462,3.3399470898586574L173.71234085922637,2.860356568272382M213.59222506597806,17.851967669979814L177.66015976245748,16.536300871570802M177.66015976245748,-6.224352684981838L177.66015976245748,16.536300871570802M177.66015976245748,16.536300871570802L169.38516186847528,18.931554549280456M146.5085984889452,-1.6024661132291544L144.8435464404199,-1.1205056228574852M146.50859983347462,-1.602465767174627L144.84354778494932,-1.1205052768029569M146.50859983347462,-1.602465767174627L173.71234085922637,2.860356568272382" style="fill:none;stroke:rgb(0,0,0);stroke-width:1;stroke-linecap:round"></path><path d="M140.14185889632637,21.662947456023204L93.39316231455825,19.951225420510173L150.725109062493,18.599554666392788z" style="fill:rgb(238,238,238); fill-opacity: 0.4"></path><path d="M146.50859822459412,-1.6024661229084738L146.50859822459412,3.339946930518661L144.84354617606886,3.8219074208903305z" style="fill:rgb(255,187,187); fill-opacity: 0.4"></path><path d="M144.8435464404199,3.8219074305696497L146.5085984889452,3.3399469401979807L146.5085984889452,-1.6024661132291544z" style="fill:rgb(153,221,255); fill-opacity: 0.4"></path><path d="M213.11680253089185,11.446572931515965L177.18473722737127,10.130906133106949M177.18473722737127,5.188493079679814L177.18473722737127,10.130906133106949M177.18473722737127,10.130906133106949L175.519685178846,10.612866623478618M213.59222506597806,-4.908685886572822L177.66015976245748,-6.224352684981838M177.66015976245748,-6.224352684981838L169.38516186847528,-3.8290990072721782M213.11680253089185,6.50415987808883L177.18473722737127,5.188493079679814M177.18473722737127,5.188493079679814L175.519685178846,5.670453570051484M93.39316231455825,-9.661067501161021L140.14185889632637,-7.94934546564799" style="fill:none;stroke:rgb(0,0,0);stroke-width:1;stroke-linecap:round"></path><path d="M146.50859822459412,-1.6024661229084738L144.84354617606886,3.8219074208903305L144.84354617606886,-1.1205056325368037z" style="fill:rgb(255,187,187); fill-opacity: 0.4"></path><path d="M144.8435464404199,-1.1205056228574843L144.8435464404199,3.8219074305696497L146.5085984889452,-1.6024661132291544zM177.18473722737127,5.188493079679816L177.18473722737127,10.13090613310695L175.51968517884598,5.670453570051485z" style="fill:rgb(153,221,255); fill-opacity: 0.4"></path><path d="M146.50859822459412,3.339946930518661L146.50859822459412,-1.6024661229084738L173.71233921629582,2.860356364485941z" style="fill:rgb(255,187,187); fill-opacity: 0.4"></path><path d="M144.8435464404199,-1.1205056228574852L144.8435464404199,3.821907430569649M144.84354778494932,3.8219075802303273L144.84354778494932,-1.1205052768029569M144.84354778494932,3.8219075802303273L173.71234085922637,2.860356568272382" style="fill:none;stroke:rgb(0,0,0);stroke-width:1;stroke-linecap:round"></path><path d="M213.59222506597803,17.851967669979818L177.66015976245748,16.536300871570802L177.66015976245748,-6.224352684981837z" style="fill:rgb(238,238,238); fill-opacity: 0.4"></path><path d="M144.84354778494932,-1.1205052768029569L173.71234085922637,2.860356568272382" style="fill:none;stroke:rgb(0,0,0);stroke-width:1;stroke-linecap:round"></path><path d="M177.18473722737127,10.13090613310695L175.51968517884598,10.61286662347862L175.51968517884598,5.670453570051485z" style="fill:rgb(153,221,255); fill-opacity: 0.4"></path><path d="M144.84354617606886,3.8219074208903305L146.50859822459412,3.339946930518661L173.71233921629582,2.860356364485941zM146.50859822459412,-1.6024661229084738L144.84354617606886,-1.1205056325368037L173.71233921629582,2.860356364485941z" style="fill:rgb(255,187,187); fill-opacity: 0.4"></path><path d="M213.1168025308918,11.446572931515966L177.18473722737127,10.13090613310695L177.18473722737127,5.188493079679816z" style="fill:rgb(153,221,255); fill-opacity: 0.4"></path><path d="M175.519685178846,5.670453570051484L175.519685178846,10.612866623478618M175.519685178846,10.612866623478618L211.45175048236655,11.928533421887634" style="fill:none;stroke:rgb(0,0,0);stroke-width:1;stroke-linecap:round"></path><path d="M93.39316231455825,-9.66106750116102L93.39316231455825,19.951225420510173L140.14185889632637,-7.949345465647991z" style="fill:rgb(238,238,238); fill-opacity: 0.4"></path><path d="M175.519685178846,5.670453570051484L211.45175048236655,6.9861203684605" style="fill:none;stroke:rgb(0,0,0);stroke-width:1;stroke-linecap:round"></path><path d="M144.84354617606886,-1.1205056325368037L144.84354617606886,3.8219074208903305L173.71233921629582,2.860356364485941z" style="fill:rgb(255,187,187); fill-opacity: 0.4"></path><path d="M175.51968517884598,10.61286662347862L177.18473722737127,10.13090613310695L213.1168025308918,11.446572931515966z" style="fill:rgb(153,221,255); fill-opacity: 0.4"></path><path d="M140.14185889632637,-7.949345465647991L140.14185889632637,21.662947456023204L150.725109062493,-11.012738255278409zM177.66015976245748,-6.224352684981837L177.66015976245748,16.536300871570802L169.38516186847528,-3.8290990072721782z" style="fill:rgb(238,238,238); fill-opacity: 0.4"></path><path d="M175.51968517884598,5.670453570051485L211.45175048236655,6.986120368460501L177.18473722737127,5.188493079679816z" style="fill:rgb(153,221,255); fill-opacity: 0.4"></path><path d="M213.59222506597803,-4.908685886572822L213.59222506597803,17.851967669979818L177.66015976245748,-6.224352684981837z" style="fill:rgb(238,238,238); fill-opacity: 0.4"></path><path d="M213.1168025308918,6.5041598780888314L213.1168025308918,11.446572931515966L177.18473722737127,5.188493079679816zM175.51968517884598,5.670453570051485L175.51968517884598,10.61286662347862L211.45175048236655,6.986120368460501z" style="fill:rgb(153,221,255); fill-opacity: 0.4"></path><path d="M93.39316231455825,19.951225420510173L140.14185889632637,21.662947456023204L140.14185889632637,-7.949345465647991zM169.38516186847528,18.93155454928046L177.66015976245748,16.536300871570802L213.59222506597803,17.851967669979818z" style="fill:rgb(238,238,238); fill-opacity: 0.4"></path><path d="M211.45175048236655,6.986120368460501L213.1168025308918,6.5041598780888314L177.18473722737127,5.188493079679816z" style="fill:rgb(153,221,255); fill-opacity: 0.4"></path><path d="M213.59222506597806,-4.908685886572822L213.59222506597806,17.851967669979814M213.59222506597806,17.851967669979814L205.31722717199585,20.247221347689475" style="fill:none;stroke:rgb(0,0,0);stroke-width:1;stroke-linecap:round"></path><path d="M211.45175048236655,11.928533421887636L175.51968517884598,10.61286662347862L213.1168025308918,11.446572931515966z" style="fill:rgb(153,221,255); fill-opacity: 0.4"></path><path d="M213.11680077429003,6.504159788293501L213.11680077429003,11.446573038114485M213.11680077429003,11.446573038114485L211.4517485934383,11.928533566788934M213.11680077429003,11.446573038114485L239.58416815911872,9.948387470396815M213.11680253089185,6.50415987808883L213.11680253089185,11.446572931515965M213.11680253089185,11.446572931515965L211.45175048236655,11.928533421887634M213.59222506597806,-4.908685886572822L205.31722717199585,-2.5134322088631644M213.11680077429003,6.504159788293501L211.4517485934383,6.986120316967949M213.11680077429003,6.504159788293501L239.58416815911872,9.948387470396815M213.11680253089185,6.50415987808883L211.45175048236655,6.9861203684605" style="fill:none;stroke:rgb(0,0,0);stroke-width:1;stroke-linecap:round"></path><path d="M175.51968517884598,10.61286662347862L211.45175048236655,11.928533421887636L211.45175048236655,6.986120368460501z" style="fill:rgb(153,221,255); fill-opacity: 0.4"></path><path d="M140.14185889632637,-7.94934546564799L140.14185889632637,21.662947456023204" style="fill:none;stroke:rgb(0,0,0);stroke-width:1;stroke-linecap:round"></path><path d="M177.66015976245748,16.536300871570802L169.38516186847528,18.93155454928046L169.38516186847528,-3.8290990072721782z" style="fill:rgb(238,238,238); fill-opacity: 0.4"></path><path d="M211.45175048236655,11.928533421887636L213.1168025308918,11.446572931515966L213.1168025308918,6.5041598780888314z" style="fill:rgb(153,221,255); fill-opacity: 0.4"></path><path d="M213.116803025511,6.504159896199508L213.116803025511,11.446572949626642L211.45175097698572,11.928533439998311z" style="fill:rgb(255,187,187); fill-opacity: 0.4"></path><path d="M211.45175048236655,6.986120368460501L211.45175048236655,11.928533421887636L213.1168025308918,6.5041598780888314z" style="fill:rgb(153,221,255); fill-opacity: 0.4"></path><path d="M213.116803025511,6.504159896199508L211.45175097698572,11.928533439998311L211.45175097698572,6.986120386571177z" style="fill:rgb(255,187,187); fill-opacity: 0.4"></path><path d="M205.31722717199585,-2.513432208863163L213.59222506597803,-4.908685886572822L177.66015976245748,-6.224352684981837z" style="fill:rgb(238,238,238); fill-opacity: 0.4"></path><path d="M211.4517485934383,11.928533566788934L211.4517485934383,6.986120316967949M211.4517485934383,11.928533566788934L239.58416815911872,9.948387470396815M211.45175048236655,6.9861203684605L211.45175048236655,11.928533421887634" style="fill:none;stroke:rgb(0,0,0);stroke-width:1;stroke-linecap:round"></path><path d="M213.116803025511,11.446572949626642L213.116803025511,6.504159896199508L239.58417048703973,9.948387461167128z" style="fill:rgb(255,187,187); fill-opacity: 0.4"></path><path d="M211.4517485934383,6.986120316967949L239.58416815911872,9.948387470396815" style="fill:none;stroke:rgb(0,0,0);stroke-width:1;stroke-linecap:round"></path><path d="M211.45175097698572,11.928533439998311L213.116803025511,11.446572949626642L239.58417048703973,9.948387461167128z" style="fill:rgb(255,187,187); fill-opacity: 0.4"></path><path d="M205.31722717199585,20.247221347689475L213.59222506597803,17.851967669979818L213.59222506597803,-4.908685886572822z" style="fill:rgb(238,238,238); fill-opacity: 0.4"></path><path d="M213.116803025511,6.504159896199508L211.45175097698572,6.986120386571177L239.58417048703973,9.948387461167128z" style="fill:rgb(255,187,187); fill-opacity: 0.4"></path><path d="M169.38516186847528,-3.8290990072721782L205.31722717199585,-2.513432208863163L177.66015976245748,-6.224352684981837z" style="fill:rgb(238,238,238); fill-opacity: 0.4"></path><path d="M211.45175097698572,6.986120386571177L211.45175097698572,11.928533439998311L239.58417048703973,9.948387461167128z" style="fill:rgb(255,187,187); fill-opacity: 0.4"></path><path d="M169.38516186847528,-3.8290990072721782L169.38516186847528,18.931554549280456M169.38516186847528,18.931554549280456L205.31722717199585,20.247221347689475" style="fill:none;stroke:rgb(0,0,0);stroke-width:1;stroke-linecap:round"></path><path d="M205.31722717199585,20.247221347689475L169.38516186847528,18.93155454928046L213.59222506597803,17.851967669979818z" style="fill:rgb(238,238,238); fill-opacity: 0.4"></path><path d="M169.38516186847528,-3.8290990072721782L205.31722717199585,-2.5134322088631644M265.64271279737414,16.70832554653452L240.52727579566485,15.78871387624613M240.52727579566485,-0.12030031518795822L240.52727579566485,15.78871387624613M240.52727579566485,15.78871387624613L234.5605301738671,17.51582844203503M265.64271279737414,0.7993113551004349L240.52727579566485,-0.12030031518795822M240.52727579566485,-0.12030031518795822L234.5605301738671,1.6068142506009417" style="fill:none;stroke:rgb(0,0,0);stroke-width:1;stroke-linecap:round"></path><path d="M169.38516186847528,-3.8290990072721782L169.38516186847528,18.93155454928046L205.31722717199585,-2.513432208863163zM205.31722717199585,-2.513432208863163L205.31722717199585,20.247221347689475L213.59222506597803,-4.908685886572822zM265.6427127973742,16.70832554653452L240.52727579566488,15.78871387624613L240.52727579566488,-0.12030031518795949zM169.38516186847528,18.93155454928046L205.31722717199585,20.247221347689475L205.31722717199585,-2.513432208863163zM240.52727579566488,-0.12030031518795949L240.52727579566488,15.78871387624613L234.5605301738671,1.6068142506009404zM265.6427127973742,0.7993113551004352L265.6427127973742,16.70832554653452L240.52727579566488,-0.12030031518795949zM234.5605301738671,17.51582844203503L240.52727579566488,15.78871387624613L265.6427127973742,16.70832554653452z" style="fill:rgb(238,238,238); fill-opacity: 0.4"></path><path d="M265.64271279737414,0.7993113551004349L265.64271279737414,16.70832554653452M265.64271279737414,16.70832554653452L259.6759671755764,18.435440112323423M205.31722717199585,-2.5134322088631644L205.31722717199585,20.247221347689475M265.64271279737414,0.7993113551004349L259.6759671755764,2.5264259208893347" style="fill:none;stroke:rgb(0,0,0);stroke-width:1;stroke-linecap:round"></path><path d="M240.52727579566488,15.78871387624613L234.5605301738671,17.51582844203503L234.5605301738671,1.6068142506009404zM259.6759671755764,2.5264259208893347L265.6427127973742,0.7993113551004352L240.52727579566488,-0.12030031518795949zM259.6759671755764,18.435440112323423L265.6427127973742,16.70832554653452L265.6427127973742,0.7993113551004352zM234.5605301738671,1.6068142506009404L259.6759671755764,2.5264259208893347L240.52727579566488,-0.12030031518795949z" style="fill:rgb(238,238,238); fill-opacity: 0.4"></path><path d="M234.5605301738671,1.6068142506009417L234.5605301738671,17.51582844203503M234.5605301738671,17.51582844203503L259.6759671755764,18.435440112323423" style="fill:none;stroke:rgb(0,0,0);stroke-width:1;stroke-linecap:round"></path><path d="M259.6759671755764,18.435440112323423L234.5605301738671,17.51582844203503L265.6427127973742,16.70832554653452z" style="fill:rgb(238,238,238); fill-opacity: 0.4"></path><path d="M234.5605301738671,1.6068142506009417L259.6759671755764,2.5264259208893347M267.4648384913713,9.793330964208419L283.06993660569833,10.364717810511502" style="fill:none;stroke:rgb(0,0,0);stroke-width:1;stroke-linecap:round"></path><path d="M234.5605301738671,1.6068142506009404L234.5605301738671,17.51582844203503L259.6759671755764,2.5264259208893347zM259.6759671755764,2.5264259208893347L259.6759671755764,18.435440112323423L265.6427127973742,0.7993113551004352z" style="fill:rgb(238,238,238); fill-opacity: 0.4"></path><path d="M301.63760928692045,56.345847923661225L295.1476314129028,56.10821481409383M295.1476314129028,-35.24697672082023L295.1476314129028,56.10821481409383M295.1476314129028,56.10821481409383L292.8393791407184,56.77635392601458" style="fill:none;stroke:rgb(0,0,0);stroke-width:1;stroke-linecap:round"></path><path d="M234.5605301738671,17.51582844203503L259.6759671755764,18.435440112323423L259.6759671755764,2.5264259208893347z" style="fill:rgb(238,238,238); fill-opacity: 0.4"></path><path d="M301.63760928692045,-35.00934361125284L301.63760928692045,56.345847923661225M301.63760928692045,56.345847923661225L299.329357014736,57.01398703558198" style="fill:none;stroke:rgb(0,0,0);stroke-width:1;stroke-linecap:round"></path><path d="M292.83937914071834,56.77635392601458L295.1476314129028,56.10821481409383L301.63760928692045,56.345847923661225zM301.63760928692045,56.345847923661225L295.1476314129028,56.10821481409383L295.1476314129028,-35.24697672082023z" style="fill:rgb(238,238,238); fill-opacity: 0.4"></path><path d="M259.6759671755764,2.5264259208893347L259.6759671755764,18.435440112323423" style="fill:none;stroke:rgb(0,0,0);stroke-width:1;stroke-linecap:round"></path><path d="M283.8855141261944,6.796563261816341L282.25435908520234,7.268712035859183L292.43299547429456,10.707549918293353z" style="fill:rgb(0,0,0)"></path><path d="M299.32935701473593,57.01398703558198L292.83937914071834,56.77635392601458L301.63760928692045,56.345847923661225z" style="fill:rgb(238,238,238); fill-opacity: 0.4"></path><path d="M281.75030440552257,12.019435596920221L283.06993660569833,14.483395355034114L292.43299547429456,10.707549918293353z" style="fill:rgb(0,0,0)"></path><path d="M292.8393791407184,-34.57883760889948L292.8393791407184,56.77635392601458M292.8393791407184,56.77635392601458L299.329357014736,57.01398703558198" style="fill:none;stroke:rgb(0,0,0);stroke-width:1;stroke-linecap:round"></path><path d="M282.25435908520234,7.268712035859183L281.75030440552257,12.019435596920221L292.43299547429456,10.707549918293353z" style="fill:rgb(0,0,0)"></path><path d="M295.1476314129028,56.10821481409383L292.83937914071834,56.77635392601458L292.83937914071834,-34.57883760889948zM299.32935701473593,57.01398703558198L301.63760928692045,56.345847923661225L301.63760928692045,-35.00934361125284zM301.63760928692045,-35.00934361125284L301.63760928692045,56.345847923661225L295.1476314129028,-35.24697672082023zM295.1476314129028,-35.24697672082023L295.1476314129028,56.10821481409383L292.83937914071834,-34.57883760889948z" style="fill:rgb(238,238,238); fill-opacity: 0.4"></path><path d="M299.329357014736,-34.34120449933208L299.329357014736,57.01398703558198M301.63760928692045,-35.00934361125284L295.1476314129028,-35.24697672082023M295.1476314129028,-35.24697672082023L292.8393791407184,-34.57883760889948M336.2167637488933,71.73030070752151L329.7267858748757,71.49266759795412M329.7267858748757,-48.09917064016057L329.7267858748757,71.49266759795412M329.7267858748757,71.49266759795412L327.41853360269124,72.16080670987488M302.04399295334423,11.05946039646839L317.64909106767124,11.630847242771473" style="fill:none;stroke:rgb(0,0,0);stroke-width:1;stroke-linecap:round"></path><path d="M292.83937914071834,56.77635392601458L299.32935701473593,57.01398703558198L299.32935701473593,-34.34120449933208z" style="fill:rgb(238,238,238); fill-opacity: 0.4"></path><path d="M301.63760928692045,-35.00934361125284L299.329357014736,-34.34120449933208" style="fill:none;stroke:rgb(0,0,0);stroke-width:1;stroke-linecap:round"></path><path d="M299.32935701473593,-34.34120449933208L299.32935701473593,57.01398703558198L301.63760928692045,-35.00934361125284z" style="fill:rgb(238,238,238); fill-opacity: 0.4"></path><path d="M336.2167637488933,-47.861537530593175L336.2167637488933,71.73030070752151M336.2167637488933,71.73030070752151L333.9085114767089,72.39843981944227" style="fill:none;stroke:rgb(0,0,0);stroke-width:1;stroke-linecap:round"></path><path d="M299.32935701473593,-34.34120449933208L301.63760928692045,-35.00934361125284L295.1476314129028,-35.24697672082023zM292.83937914071834,-34.57883760889948L292.83937914071834,56.77635392601458L299.32935701473593,-34.34120449933208zM327.41853360269124,72.16080670987488L329.7267858748757,71.49266759795412L336.21676374889336,71.73030070752151zM292.83937914071834,-34.57883760889948L299.32935701473593,-34.34120449933208L295.1476314129028,-35.24697672082023zM336.21676374889336,71.73030070752151L329.7267858748757,71.49266759795412L329.7267858748757,-48.09917064016057z" style="fill:rgb(238,238,238); fill-opacity: 0.4"></path><path d="M292.8393791407184,-34.57883760889948L299.329357014736,-34.34120449933208" style="fill:none;stroke:rgb(0,0,0);stroke-width:1;stroke-linecap:round"></path><path d="M333.9085114767089,72.39843981944226L327.41853360269124,72.16080670987488L336.21676374889336,71.73030070752151z" style="fill:rgb(238,238,238); fill-opacity: 0.4"></path><path d="M327.41853360269124,-47.43103152823982L327.41853360269124,72.16080670987488M327.41853360269124,72.16080670987488L333.9085114767089,72.39843981944227" style="fill:none;stroke:rgb(0,0,0);stroke-width:1;stroke-linecap:round"></path><path d="M318.4646685881672,8.06269269407631L316.83351354717524,8.534841468119152L327.01214993626746,11.973679350553324zM316.3294588674955,13.285565029180193L317.64909106767124,15.749524787294087L327.01214993626746,11.973679350553324z" style="fill:rgb(0,0,0)"></path><path d="M329.7267858748757,71.49266759795412L327.41853360269124,72.16080670987488L327.41853360269124,-47.43103152823982zM333.9085114767089,72.39843981944226L336.21676374889336,71.73030070752151L336.21676374889336,-47.86153753059318z" style="fill:rgb(238,238,238); fill-opacity: 0.4"></path><path d="M316.83351354717524,8.534841468119152L316.3294588674955,13.285565029180193L327.01214993626746,11.973679350553324z" style="fill:rgb(0,0,0)"></path><path d="M333.9085114767089,-47.19339841867242L333.9085114767089,72.39843981944227" style="fill:none;stroke:rgb(0,0,0);stroke-width:1;stroke-linecap:round"></path><path d="M336.21676374889336,-47.86153753059318L336.21676374889336,71.73030070752151L329.7267858748757,-48.09917064016057zM329.7267858748757,-48.09917064016057L329.7267858748757,71.49266759795412L327.41853360269124,-47.43103152823982zM327.41853360269124,72.16080670987488L333.9085114767089,72.39843981944226L333.9085114767089,-47.19339841867243z" style="fill:rgb(238,238,238); fill-opacity: 0.4"></path><path d="M336.2167637488933,-47.861537530593175L329.7267858748757,-48.09917064016057M329.7267858748757,-48.09917064016057L327.41853360269124,-47.43103152823982M336.2167637488933,-47.861537530593175L333.9085114767089,-47.19339841867242" style="fill:none;stroke:rgb(0,0,0);stroke-width:1;stroke-linecap:round"></path><path d="M333.9085114767089,-47.19339841867243L333.9085114767089,72.39843981944226L336.21676374889336,-47.86153753059318zM327.41853360269124,-47.43103152823982L327.41853360269124,72.16080670987488L333.9085114767089,-47.19339841867243zM333.9085114767089,-47.19339841867243L336.21676374889336,-47.86153753059318L329.7267858748757,-48.09917064016057zM327.41853360269124,-47.43103152823982L333.9085114767089,-47.19339841867243L329.7267858748757,-48.09917064016057z" style="fill:rgb(238,238,238); fill-opacity: 0.4"></path><path d="M327.41853360269124,-47.43103152823982L333.9085114767089,-47.19339841867242" style="fill:none;stroke:rgb(0,0,0);stroke-width:1;stroke-linecap:round"></path></svg>