<?xml version="1.0" encoding="UTF-8" standalone="no"?>
<svg
   viewBox="-768 -396 547.44842 134.1672"
   width="547.44843"
   height="134.16721"
   version="1.1"
   id="svg396"
   sodipodi:docname="nn.svg"
   inkscape:export-filename="C:\Users\Bram\Programming\school\labrotations\lab1\codes\brain_idp_cnn\report\nn.png"
   inkscape:export-xdpi="96"
   inkscape:export-ydpi="96"
   inkscape:version="1.1.2 (b8e25be833, 2022-02-05)"
   xmlns:inkscape="http://www.inkscape.org/namespaces/inkscape"
   xmlns:sodipodi="http://sodipodi.sourceforge.net/DTD/sodipodi-0.dtd"
   xmlns="http://www.w3.org/2000/svg"
   xmlns:svg="http://www.w3.org/2000/svg">
  <defs
     id="defs400" />
  <sodipodi:namedview
     id="namedview398"
     pagecolor="#505050"
     bordercolor="#eeeeee"
     borderopacity="1"
     inkscape:pageshadow="0"
     inkscape:pageopacity="0"
     inkscape:pagecheckerboard="0"
     showgrid="false"
     fit-margin-top="0"
     fit-margin-left="0"
     fit-margin-right="0"
     fit-margin-bottom="0"
     inkscape:zoom="3.8964529"
     inkscape:cx="80.201148"
     inkscape:cy="110.99839"
     inkscape:window-width="1920"
     inkscape:window-height="1052"
     inkscape:window-x="-8"
     inkscape:window-y="-8"
     inkscape:window-maximized="1"
     inkscape:current-layer="svg396"
     width="536.6994px" />
  <path
     d="m -670.79341,-328.93484 -79.19858,-2.89989 m 0,-50.16721 v 50.16721 m 0,0 -17.50801,5.06781 m 96.70659,-52.33513 -79.19858,-2.89989 m 0,0 -17.50801,5.06781 m 95.5671,27.7811 -79.19859,-2.89989 m 0,-4.94241 v 4.94241 m 0,0 -1.66505,0.48196 m 80.86364,-2.52449 -79.19859,-2.89988 m 0,0 -1.66505,0.48196"
     style="fill:none;stroke:#000000;stroke-width:1;stroke-linecap:round"
     id="path2" />
  <path
     d="m -751.13149,-356.99533 v 4.94241 l -1.66505,-4.46045 z m 0,4.94241 -1.66505,0.48196 v -4.94241 z"
     style="fill:#99ddff;fill-opacity:0.4"
     id="path4" />
  <path
     d="m -752.79654,-356.51337 v 4.94241 m 0,0 79.19859,2.89989 m -79.19859,-7.8423 79.19859,2.89988"
     style="fill:none;stroke:#000000;stroke-width:1;stroke-linecap:round"
     id="path6" />
  <path
     d="m -670.79341,-328.93484 -79.19858,-2.89989 v -50.16721 z"
     style="fill:#eeeeee;fill-opacity:0.4"
     id="path8" />
  <path
     d="m -671.9329,-349.15303 -79.19859,-2.89989 v -4.94241 z m -80.86364,-2.41793 1.66505,-0.48196 79.19859,2.89989 z m 0,-4.94241 79.19859,2.89988 -77.53354,-3.38184 z m 0,0 v 4.94241 l 79.19859,-2.04253 z"
     style="fill:#99ddff;fill-opacity:0.4"
     id="path10" />
  <path
     d="m -749.99199,-382.00194 v 50.16721 L -767.5,-376.93413 Z m 79.19858,2.89989 v 50.16721 l -79.19858,-53.0671 z"
     style="fill:#eeeeee;fill-opacity:0.4"
     id="path12" />
  <path
     d="m -671.9329,-354.09545 v 4.94242 l -79.19859,-7.8423 z"
     style="fill:#99ddff;fill-opacity:0.4"
     id="path14" />
  <path
     d="m -767.5,-326.76692 17.50801,-5.06781 79.19858,2.89989 z"
     style="fill:#eeeeee;fill-opacity:0.4"
     id="path16" />
  <path
     d="m -673.59795,-353.61349 1.66505,-0.48196 -79.19859,-2.89988 z m 0,4.94242 -79.19859,-2.89989 80.86364,2.41793 z"
     style="fill:#99ddff;fill-opacity:0.4"
     id="path18" />
  <path
     d="m -670.79341,-379.10205 v 50.16721 m 0,0 -17.508,5.06781"
     style="fill:none;stroke:#000000;stroke-width:1;stroke-linecap:round"
     id="path20" />
  <path
     d="m -752.79654,-351.57096 79.19859,2.89989 v -4.94242 z"
     style="fill:#99ddff;fill-opacity:0.4"
     id="path22" />
  <path
     d="m -670.79341,-379.10205 -17.508,5.06781 m 16.36851,19.93879 v 4.94242 m 0,0 -1.66505,0.48196 m 1.66505,-5.42438 v 4.94242 m 0,0 -1.66505,0.48196 m 1.66505,-0.48196 26.36251,-1.1507 m -26.36251,-3.79172 -1.66505,0.48196 m 1.66505,-0.48196 -1.66505,0.48196 m 1.66505,-0.48196 26.36251,3.79172"
     style="fill:none;stroke:#000000;stroke-width:1;stroke-linecap:round"
     id="path24" />
  <path
     d="m -749.99199,-331.83473 -17.50801,5.06781 v -50.16721 z"
     style="fill:#eeeeee;fill-opacity:0.4"
     id="path26" />
  <path
     d="m -671.9329,-354.09545 v 4.94242 l -1.66505,0.48196 z"
     style="fill:#ffbbbb;fill-opacity:0.4"
     id="path28" />
  <path
     d="m -673.59795,-348.67107 1.66505,-0.48196 v -4.94242 z"
     style="fill:#99ddff;fill-opacity:0.4"
     id="path30" />
  <path
     d="m -671.9329,-354.09545 -1.66505,5.42438 v -4.94242 z"
     style="fill:#ffbbbb;fill-opacity:0.4"
     id="path32" />
  <path
     d="m -673.59795,-353.61349 v 4.94242 l 1.66505,-5.42438 z"
     style="fill:#99ddff;fill-opacity:0.4"
     id="path34" />
  <path
     d="m -673.59795,-353.61349 v 4.94242 m 0,0 v -4.94242 m 0,4.94242 28.02756,-1.63266 m -28.02756,-3.30976 28.02756,3.30976"
     style="fill:none;stroke:#000000;stroke-width:1;stroke-linecap:round"
     id="path36" />
  <path
     d="m -671.9329,-349.15303 v -4.94242 l 26.36251,3.79172 z m -1.66505,0.48196 1.66505,-0.48196 26.36251,-1.1507 z"
     style="fill:#ffbbbb;fill-opacity:0.4"
     id="path38" />
  <path
     d="m -688.30141,-374.03424 17.508,-5.06781 -79.19858,-2.89989 z"
     style="fill:#eeeeee;fill-opacity:0.4"
     id="path40" />
  <path
     d="m -671.9329,-354.09545 -1.66505,0.48196 28.02756,3.30976 z"
     style="fill:#ffbbbb;fill-opacity:0.4"
     id="path42" />
  <path
     d="m -575.4764,-328.49427 -68.38196,-2.50383 m 0,-43.31557 v 43.31557 m 0,0 -15.19975,4.39967"
     style="fill:none;stroke:#000000;stroke-width:1;stroke-linecap:round"
     id="path44" />
  <path
     d="m -673.59795,-353.61349 v 4.94242 l 28.02756,-1.63266 z"
     style="fill:#ffbbbb;fill-opacity:0.4"
     id="path46" />
  <path
     d="m -575.4764,-371.80984 -68.38196,-2.50383 m 0,0 -15.19975,4.39967"
     style="fill:none;stroke:#000000;stroke-width:1;stroke-linecap:round"
     id="path48" />
  <path
     d="m -688.30141,-323.86703 17.508,-5.06781 v -50.16721 z m -79.19859,-53.0671 79.19859,2.89989 -61.69058,-7.9677 z"
     style="fill:#eeeeee;fill-opacity:0.4"
     id="path50" />
  <path
     d="m -767.5,-376.93413 v 50.16721 m 0,0 79.19859,2.89989"
     style="fill:none;stroke:#000000;stroke-width:1;stroke-linecap:round"
     id="path52" />
  <path
     d="m -575.4764,-328.49427 -68.38196,-2.50383 v -43.31557 z m -112.82501,4.62724 -79.19859,-2.89989 96.70659,-2.16792 z"
     style="fill:#eeeeee;fill-opacity:0.4"
     id="path54" />
  <path
     d="m -578.82174,-347.03566 -68.38195,-2.50384 m 0,-4.94241 v 4.94241 m 0,0 -1.66505,0.48196 m 70.04701,-2.92054 -68.38196,-2.50383 m 0,0 -1.66505,0.48196 M -767.5,-376.93413 l 79.19859,2.89989"
     style="fill:none;stroke:#000000;stroke-width:1;stroke-linecap:round"
     id="path56" />
  <path
     d="m -647.20369,-354.48191 v 4.94241 l -1.66505,-4.46045 z m 0,4.94241 -1.66505,0.48196 v -4.94241 z"
     style="fill:#99ddff;fill-opacity:0.4"
     id="path58" />
  <path
     d="m -648.86874,-353.99995 v 4.94241 m 0,0 68.38195,2.50384 m -68.38195,-7.44625 68.38195,2.50383"
     style="fill:none;stroke:#000000;stroke-width:1;stroke-linecap:round"
     id="path60" />
  <path
     d="m -643.85836,-374.31367 v 43.31557 l -15.19975,-38.9159 z m 68.38196,2.50383 v 43.31557 l -68.38196,-45.8194 z"
     style="fill:#eeeeee;fill-opacity:0.4"
     id="path62" />
  <path
     d="m -578.82174,-347.03566 -68.38195,-2.50384 v -4.94241 z"
     style="fill:#99ddff;fill-opacity:0.4"
     id="path64" />
  <path
     d="m -767.5,-376.93413 v 50.16721 l 79.19859,-47.26732 z"
     style="fill:#eeeeee;fill-opacity:0.4"
     id="path66" />
  <path
     d="m -648.86874,-349.05754 1.66505,-0.48196 68.38196,2.50384 z"
     style="fill:#99ddff;fill-opacity:0.4"
     id="path68" />
  <path
     d="m -659.05811,-326.59843 15.19975,-4.39967 68.38196,2.50383 z m -29.2433,-47.43581 v 50.16721 l 17.508,-55.23502 z"
     style="fill:#eeeeee;fill-opacity:0.4"
     id="path70" />
  <path
     d="m -648.86874,-353.99995 68.38195,2.50383 -66.7169,-2.98579 z"
     style="fill:#99ddff;fill-opacity:0.4"
     id="path72" />
  <path
     d="m -575.4764,-371.80984 v 43.31557 m 0,0 -15.19976,4.39968"
     style="fill:none;stroke:#000000;stroke-width:1;stroke-linecap:round"
     id="path74" />
  <path
     d="m -648.86874,-353.99995 v 4.94241 l 68.38195,-2.43858 z"
     style="fill:#99ddff;fill-opacity:0.4"
     id="path76" />
  <path
     d="m -767.5,-326.76692 79.19859,2.89989 v -50.16721 z"
     style="fill:#eeeeee;fill-opacity:0.4"
     id="path78" />
  <path
     d="m -578.82174,-351.97808 v 4.94242 l -68.38195,-7.44625 z"
     style="fill:#99ddff;fill-opacity:0.4"
     id="path80" />
  <path
     d="m -575.4764,-371.80984 -15.19976,4.39967"
     style="fill:none;stroke:#000000;stroke-width:1;stroke-linecap:round"
     id="path82" />
  <path
     d="m -580.48679,-351.49612 1.66505,-0.48196 -68.38195,-2.50383 z"
     style="fill:#99ddff;fill-opacity:0.4"
     id="path84" />
  <path
     d="m -643.85836,-330.9981 -15.19975,4.39967 V -369.914 Z"
     style="fill:#eeeeee;fill-opacity:0.4"
     id="path86" />
  <path
     d="m -580.48679,-346.5537 -68.38195,-2.50384 70.047,2.02188 z m -68.38195,-2.50384 68.38195,2.50384 v -4.94242 z"
     style="fill:#99ddff;fill-opacity:0.4"
     id="path88" />
  <path
     d="m -590.67616,-367.41017 15.19976,-4.39967 -68.38196,-2.50383 z"
     style="fill:#eeeeee;fill-opacity:0.4"
     id="path90" />
  <path
     d="m -688.30141,-374.03424 v 50.16721 m 109.47967,-28.11105 v 4.94242 m 0,0 -1.66505,0.48196 m 1.66505,-5.42438 v 4.94242 m 0,0 -1.66505,0.48196 m 1.66505,-0.48196 26.73698,-1.01364 m -26.73698,-3.92878 -1.66505,0.48196 m 1.66505,-0.48196 -1.66505,0.48196 m 1.66505,-0.48196 26.73698,3.92878"
     style="fill:none;stroke:#000000;stroke-width:1;stroke-linecap:round"
     id="path92" />
  <path
     d="m -578.82174,-351.97808 v 4.94242 l -1.66505,0.48196 z"
     style="fill:#ffbbbb;fill-opacity:0.4"
     id="path94" />
  <path
     d="m -580.48679,-346.5537 1.66505,-0.48196 v -4.94242 z"
     style="fill:#99ddff;fill-opacity:0.4"
     id="path96" />
  <path
     d="m -490.97603,-328.44974 -57.56532,-2.10778 m 0,-36.46393 v 36.46393 m 0,0 -12.8915,3.73153"
     style="fill:none;stroke:#000000;stroke-width:1;stroke-linecap:round"
     id="path98" />
  <path
     d="m -578.82174,-351.97808 -1.66505,5.42438 v -4.94242 z"
     style="fill:#ffbbbb;fill-opacity:0.4"
     id="path100" />
  <path
     d="m -580.48679,-351.49612 v 4.94242 l 1.66505,-5.42438 z"
     style="fill:#99ddff;fill-opacity:0.4"
     id="path102" />
  <path
     d="m -590.67616,-324.09459 15.19976,-4.39968 v -43.31557 z"
     style="fill:#eeeeee;fill-opacity:0.4"
     id="path104" />
  <path
     d="m -580.48679,-351.49612 v 4.94242 m 0,0 v -4.94242 m 0,4.94242 28.40203,-1.4956"
     style="fill:none;stroke:#000000;stroke-width:1;stroke-linecap:round"
     id="path106" />
  <path
     d="m -578.82174,-347.03566 v -4.94242 l 26.73698,3.92878 z"
     style="fill:#ffbbbb;fill-opacity:0.4"
     id="path108" />
  <path
     d="m -580.48679,-351.49612 28.40203,3.44682"
     style="fill:none;stroke:#000000;stroke-width:1;stroke-linecap:round"
     id="path110" />
  <path
     d="m -659.05811,-369.914 68.38195,2.50383 -53.1822,-6.9035 z"
     style="fill:#eeeeee;fill-opacity:0.4"
     id="path112" />
  <path
     d="m -490.97603,-364.91367 -57.56532,-2.10778 m 0,0 -12.8915,3.73153"
     style="fill:none;stroke:#000000;stroke-width:1;stroke-linecap:round"
     id="path114" />
  <path
     d="m -580.48679,-346.5537 1.66505,-0.48196 26.73698,-1.01364 z m 1.66505,-5.42438 -1.66505,0.48196 28.40203,3.44682 z"
     style="fill:#ffbbbb;fill-opacity:0.4"
     id="path116" />
  <path
     d="m -659.05811,-369.914 v 43.31557 m 0,0 68.38195,2.50384 m 98.62736,-23.99412 -57.56532,-2.10777 m 0,-4.94242 v 4.94242 m 0,0 -1.66506,0.48196 m 59.23038,-3.3166 -57.56532,-2.10778 m 0,0 -1.66506,0.48196"
     style="fill:none;stroke:#000000;stroke-width:1;stroke-linecap:round"
     id="path118" />
  <path
     d="m -580.48679,-351.49612 v 4.94242 l 28.40203,-1.4956 z"
     style="fill:#ffbbbb;fill-opacity:0.4"
     id="path120" />
  <path
     d="m -590.67616,-324.09459 -68.38195,-2.50384 83.58171,-1.89584 z"
     style="fill:#eeeeee;fill-opacity:0.4"
     id="path122" />
  <path
     d="m -549.61412,-355.1389 v 4.94242 l -1.66506,-4.46046 z"
     style="fill:#99ddff;fill-opacity:0.4"
     id="path124" />
  <path
     d="m -490.97603,-328.44974 -57.56532,-2.10778 v -36.46393 z"
     style="fill:#eeeeee;fill-opacity:0.4"
     id="path126" />
  <path
     d="m -549.61412,-350.19648 -1.66506,0.48196 v -4.94242 z"
     style="fill:#99ddff;fill-opacity:0.4"
     id="path128" />
  <path
     d="m -659.05811,-369.914 68.38195,2.50383 m 39.39698,12.75323 v 4.94242 m 0,0 57.56533,2.10777 m -57.56533,-7.05019 57.56533,2.10778"
     style="fill:none;stroke:#000000;stroke-width:1;stroke-linecap:round"
     id="path130" />
  <path
     d="m -492.0488,-348.08871 -57.56532,-2.10777 v -4.94242 z m -59.23038,-1.62581 1.66506,-0.48196 57.56532,2.10777 z"
     style="fill:#99ddff;fill-opacity:0.4"
     id="path132" />
  <path
     d="m -548.54135,-367.02145 v 36.46393 l -12.8915,-32.7324 z"
     style="fill:#eeeeee;fill-opacity:0.4"
     id="path134" />
  <path
     d="m -551.27918,-354.65694 57.56533,2.10778 -55.90027,-2.58974 z"
     style="fill:#99ddff;fill-opacity:0.4"
     id="path136" />
  <path
     d="m -659.05811,-369.914 v 43.31557 l 68.38195,-40.81174 z m 168.08208,5.00033 v 36.46393 l -57.56532,-38.57171 z"
     style="fill:#eeeeee;fill-opacity:0.4"
     id="path138" />
  <path
     d="m -551.27918,-354.65694 v 4.94242 l 57.56533,-2.83464 z"
     style="fill:#99ddff;fill-opacity:0.4"
     id="path140" />
  <path
     d="m -590.67616,-367.41017 v 43.31558 l 15.19976,-47.71525 z m 29.24331,40.58418 12.8915,-3.73153 57.56532,2.10778 z"
     style="fill:#eeeeee;fill-opacity:0.4"
     id="path142" />
  <path
     d="m -492.0488,-353.03112 v 4.94241 l -57.56532,-7.05019 z"
     style="fill:#99ddff;fill-opacity:0.4"
     id="path144" />
  <path
     d="m -490.97603,-364.91367 v 36.46393 m 0,0 -12.8915,3.73153"
     style="fill:none;stroke:#000000;stroke-width:1;stroke-linecap:round"
     id="path146" />
  <path
     d="m -493.71385,-352.54916 1.66505,-0.48196 -57.56532,-2.10778 z m 0,4.94241 -57.56533,-2.10777 59.23038,1.62581 z"
     style="fill:#99ddff;fill-opacity:0.4"
     id="path148" />
  <path
     d="m -659.05811,-326.59843 68.38195,2.50384 v -43.31558 z"
     style="fill:#eeeeee;fill-opacity:0.4"
     id="path150" />
  <path
     d="m -551.27918,-349.71452 57.56533,2.10777 v -4.94241 z"
     style="fill:#99ddff;fill-opacity:0.4"
     id="path152" />
  <path
     d="m -490.97603,-364.91367 -12.8915,3.73153"
     style="fill:none;stroke:#000000;stroke-width:1;stroke-linecap:round"
     id="path154" />
  <path
     d="m -548.54135,-330.55752 -12.8915,3.73153 v -36.46393 z"
     style="fill:#eeeeee;fill-opacity:0.4"
     id="path156" />
  <path
     d="m -492.0488,-353.03112 v 4.94241 m 0,0 -1.66505,0.48196 m 1.66505,-0.48196 26.44367,-0.38636 m -26.44367,-4.55605 v 4.94241 m 0,0 -1.66505,0.48196 m 1.66505,-5.42437 -1.66505,0.48196 m 1.66505,-0.48196 26.44367,4.55605 m -26.44367,-4.55605 -1.66505,0.48196"
     style="fill:none;stroke:#000000;stroke-width:1;stroke-linecap:round"
     id="path158" />
  <path
     d="m -493.71385,-347.60675 1.66505,-0.48196 v -4.94241 z"
     style="fill:#99ddff;fill-opacity:0.4"
     id="path160" />
  <path
     d="m -492.0488,-353.03112 v 4.94241 l -1.66505,0.48196 z"
     style="fill:#ffbbbb;fill-opacity:0.4"
     id="path162" />
  <path
     d="m -493.71385,-352.54916 v 4.94241 l 1.66505,-5.42437 z"
     style="fill:#99ddff;fill-opacity:0.4"
     id="path164" />
  <path
     d="m -492.0488,-353.03112 -1.66505,5.42437 v -4.94241 z"
     style="fill:#ffbbbb;fill-opacity:0.4"
     id="path166" />
  <path
     d="m -590.67616,-367.41017 v 43.31558"
     style="fill:none;stroke:#000000;stroke-width:1;stroke-linecap:round"
     id="path168" />
  <path
     d="m -503.86753,-361.18214 12.8915,-3.73153 -57.56532,-2.10778 z"
     style="fill:#eeeeee;fill-opacity:0.4"
     id="path170" />
  <path
     d="m -493.71385,-347.60675 v -4.94241 m 0,4.94241 28.10872,-0.86832 m -28.10872,-4.07409 v 4.94241"
     style="fill:none;stroke:#000000;stroke-width:1;stroke-linecap:round"
     id="path172" />
  <path
     d="m -492.0488,-348.08871 v -4.94241 l 26.44367,4.55605 z"
     style="fill:#ffbbbb;fill-opacity:0.4"
     id="path174" />
  <path
     d="m -493.71385,-352.54916 28.10872,4.07409"
     style="fill:none;stroke:#000000;stroke-width:1;stroke-linecap:round"
     id="path176" />
  <path
     d="m -493.71385,-347.60675 1.66505,-0.48196 26.44367,-0.38636 z m 1.66505,-5.42437 -1.66505,0.48196 28.10872,4.07409 z m -1.66505,0.48196 v 4.94241 l 28.10872,-0.86832 z"
     style="fill:#ffbbbb;fill-opacity:0.4"
     id="path178" />
  <path
     d="m -503.86753,-324.71821 12.8915,-3.73153 v -36.46393 z"
     style="fill:#eeeeee;fill-opacity:0.4"
     id="path180" />
  <path
     d="m -417.29228,-328.80127 -46.74869,-1.71173 m 0,-29.61229 v 29.61229 m 0,0 -10.58326,3.0634"
     style="fill:none;stroke:#000000;stroke-width:1;stroke-linecap:round"
     id="path182" />
  <path
     d="m -561.43285,-363.28992 57.56532,2.10778 -44.67382,-5.83931 z"
     style="fill:#eeeeee;fill-opacity:0.4"
     id="path184" />
  <path
     d="m -561.43285,-363.28992 v 36.46393 m 0,0 57.56532,2.10778 m 86.57525,-33.69536 -46.74869,-1.71172 m 0,0 -10.58326,3.06339"
     style="fill:none;stroke:#000000;stroke-width:1;stroke-linecap:round"
     id="path186" />
  <path
     d="m -503.86753,-324.71821 -57.56532,-2.10778 70.45682,-1.62375 z"
     style="fill:#eeeeee;fill-opacity:0.4"
     id="path188" />
  <path
     d="m -561.43285,-363.28992 57.56532,2.10778"
     style="fill:none;stroke:#000000;stroke-width:1;stroke-linecap:round"
     id="path190" />
  <path
     d="m -417.29228,-328.80127 -46.74869,-1.71173 v -29.61229 z m -144.14057,-34.48865 v 36.46393 l 57.56532,-34.35615 z m 97.39188,3.16463 v 29.61229 l -10.58326,-26.5489 z m -39.82656,-1.05685 v 36.46393 l 12.8915,-40.19546 z m 86.57525,2.76857 v 29.6123 l -46.74869,-31.32402 z"
     style="fill:#eeeeee;fill-opacity:0.4"
     id="path192" />
  <path
     d="m -421.50879,-344.06088 -46.7487,-1.71172 m 0,-4.94242 v 4.94242 m 0,0 -1.66505,0.48196 m 48.41375,-3.71266 -46.7487,-1.71172 m 0,0 -1.66505,0.48196"
     style="fill:none;stroke:#000000;stroke-width:1;stroke-linecap:round"
     id="path194" />
  <path
     d="m -474.62423,-327.4496 10.58326,-3.0634 46.74869,1.71173 z"
     style="fill:#eeeeee;fill-opacity:0.4"
     id="path196" />
  <path
     d="m -468.25749,-350.71502 v 4.94242 l -1.66505,-4.46046 z"
     style="fill:#99ddff;fill-opacity:0.4"
     id="path198" />
  <path
     d="m -417.29228,-358.41357 v 29.6123 m 0,0 -10.58325,3.06339"
     style="fill:none;stroke:#000000;stroke-width:1;stroke-linecap:round"
     id="path200" />
  <path
     d="m -468.25749,-345.7726 -1.66505,0.48196 v -4.94242 z"
     style="fill:#99ddff;fill-opacity:0.4"
     id="path202" />
  <path
     d="m -561.43285,-326.82599 57.56532,2.10778 v -36.46393 z"
     style="fill:#eeeeee;fill-opacity:0.4"
     id="path204" />
  <path
     d="m -469.92254,-350.23306 v 4.94242 m 0,0 46.7487,1.71172 m -46.7487,-6.65414 46.7487,1.71173"
     style="fill:none;stroke:#000000;stroke-width:1;stroke-linecap:round"
     id="path206" />
  <path
     d="m -421.50879,-344.06088 -46.7487,-1.71172 v -4.94242 z"
     style="fill:#99ddff;fill-opacity:0.4"
     id="path208" />
  <path
     d="m -417.29228,-358.41357 -10.58325,3.0634"
     style="fill:none;stroke:#000000;stroke-width:1;stroke-linecap:round"
     id="path210" />
  <path
     d="m -469.92254,-345.29064 1.66505,-0.48196 46.7487,1.71172 z"
     style="fill:#99ddff;fill-opacity:0.4"
     id="path212" />
  <path
     d="m -464.04097,-330.513 -10.58326,3.0634 v -29.6123 z"
     style="fill:#eeeeee;fill-opacity:0.4"
     id="path214" />
  <path
     d="m -503.86753,-361.18214 v 36.46393"
     style="fill:none;stroke:#000000;stroke-width:1;stroke-linecap:round"
     id="path216" />
  <path
     d="m -469.92254,-350.23306 46.7487,1.71173 -45.08365,-2.19369 z"
     style="fill:#99ddff;fill-opacity:0.4"
     id="path218" />
  <path
     d="m -427.87553,-355.35017 10.58325,-3.0634 -46.74869,-1.71172 z"
     style="fill:#eeeeee;fill-opacity:0.4"
     id="path220" />
  <path
     d="m -469.92254,-350.23306 v 4.94242 l 46.7487,-3.23069 z m 48.41375,1.22976 v 4.94242 l -46.7487,-6.65414 z m -1.66505,0.48197 1.66505,-0.48197 -46.7487,-1.71172 z"
     style="fill:#99ddff;fill-opacity:0.4"
     id="path222" />
  <path
     d="m -427.87553,-325.73788 10.58325,-3.06339 v -29.6123 z"
     style="fill:#eeeeee;fill-opacity:0.4"
     id="path224" />
  <path
     d="m -423.17384,-343.57892 -46.7487,-1.71172 48.41375,1.22976 z"
     style="fill:#99ddff;fill-opacity:0.4"
     id="path226" />
  <path
     d="m -474.62423,-357.0619 46.7487,1.71173 -36.16544,-4.77512 z"
     style="fill:#eeeeee;fill-opacity:0.4"
     id="path228" />
  <path
     d="m -469.92254,-345.29064 46.7487,1.71172 v -4.94241 z"
     style="fill:#99ddff;fill-opacity:0.4"
     id="path230" />
  <path
     d="m -474.62423,-357.0619 v 29.6123 m 0,0 46.7487,1.71172 m 6.36674,-23.26542 v 4.94242 m 0,0 -1.66505,0.48196 m 1.66505,-5.42437 v 4.94241 m 0,0 -1.66505,0.48196 m 1.66505,-0.48196 27.20374,-0.47959 m 39.87989,14.99161 -35.93207,-1.31567 m 0,-22.76065 v 22.76065 m 0,0 -8.27499,2.39526 m -22.87657,-20.53403 -1.66505,0.48197 m 1.66505,-0.48196 -1.66505,0.48196 m 1.66505,-0.48196 27.20374,4.46282"
     style="fill:none;stroke:#000000;stroke-width:1;stroke-linecap:round"
     id="path232" />
  <path
     d="m -427.87553,-325.73788 -46.7487,-1.71172 57.33195,-1.35167 z"
     style="fill:#eeeeee;fill-opacity:0.4"
     id="path234" />
  <path
     d="m -421.50879,-349.0033 v 4.94242 l -1.66505,0.48196 z"
     style="fill:#ffbbbb;fill-opacity:0.4"
     id="path236" />
  <path
     d="m -423.17384,-343.57892 1.66505,-0.48196 v -4.94242 z"
     style="fill:#99ddff;fill-opacity:0.4"
     id="path238" />
  <path
     d="m -354.90058,-335.95426 -35.93207,-1.31566 m 0,-4.94242 v 4.94242 m 0,0 -1.66505,0.48196 m 38.07254,-15.52155 -35.93207,-1.31567 m 0,0 -8.27499,2.39525 m 43.73164,10.33326 -35.93207,-1.31567 m 0,0 -1.66505,0.48196 m -82.12653,-15.33152 46.7487,1.71173"
     style="fill:none;stroke:#000000;stroke-width:1;stroke-linecap:round"
     id="path240" />
  <path
     d="m -421.50879,-349.0033 -1.66505,5.42438 v -4.94241 z"
     style="fill:#ffbbbb;fill-opacity:0.4"
     id="path242" />
  <path
     d="m -423.17384,-348.52133 v 4.94241 l 1.66505,-5.42438 z m 32.34119,6.30899 v 4.94242 l -1.66505,-4.46046 z"
     style="fill:#99ddff;fill-opacity:0.4"
     id="path244" />
  <path
     d="m -421.50879,-344.06088 v -4.94242 l 27.20374,4.46283 z"
     style="fill:#ffbbbb;fill-opacity:0.4"
     id="path246" />
  <path
     d="m -423.17384,-348.52133 v 4.94241 m 0,0 v -4.94241 m 0,4.94241 28.86879,-0.96155"
     style="fill:none;stroke:#000000;stroke-width:1;stroke-linecap:round"
     id="path248" />
  <path
     d="m -354.42516,-329.54886 -35.93207,-1.31567 v -22.76065 z"
     style="fill:#eeeeee;fill-opacity:0.4"
     id="path250" />
  <path
     d="m -423.17384,-348.52133 28.86879,3.98086"
     style="fill:none;stroke:#000000;stroke-width:1;stroke-linecap:round"
     id="path252" />
  <path
     d="m -390.83265,-337.26992 -1.66505,0.48196 v -4.94242 z"
     style="fill:#99ddff;fill-opacity:0.4"
     id="path254" />
  <path
     d="m -423.17384,-343.57892 1.66505,-0.48196 27.20374,-0.47959 z m 1.66505,-5.42438 -1.66505,0.48197 28.86879,3.98086 z"
     style="fill:#ffbbbb;fill-opacity:0.4"
     id="path256" />
  <path
     d="m -354.90058,-335.95426 -35.93207,-1.31566 v -4.94242 z"
     style="fill:#99ddff;fill-opacity:0.4"
     id="path258" />
  <path
     d="m -392.4977,-341.73038 v 4.94242 m 0,0 35.93206,1.31566"
     style="fill:none;stroke:#000000;stroke-width:1;stroke-linecap:round"
     id="path260" />
  <path
     d="m -474.62423,-357.0619 v 29.6123 l 46.7487,-27.90057 z"
     style="fill:#eeeeee;fill-opacity:0.4"
     id="path262" />
  <path
     d="m -392.4977,-341.73038 35.93206,1.31567"
     style="fill:none;stroke:#000000;stroke-width:1;stroke-linecap:round"
     id="path264" />
  <path
     d="m -423.17384,-348.52133 v 4.94241 l 28.86879,-0.96155 z"
     style="fill:#ffbbbb;fill-opacity:0.4"
     id="path266" />
  <path
     d="m -392.4977,-336.78796 1.66505,-0.48196 35.93207,1.31566 z"
     style="fill:#99ddff;fill-opacity:0.4"
     id="path268" />
  <path
     d="m -427.87553,-355.35017 v 29.61229 l 10.58325,-32.67569 z m 37.5183,1.72499 v 22.76065 l -8.27499,-20.3654 z"
     style="fill:#eeeeee;fill-opacity:0.4"
     id="path270" />
  <path
     d="m -392.4977,-341.73038 35.93206,1.31567 -34.26701,-1.79763 z"
     style="fill:#99ddff;fill-opacity:0.4"
     id="path272" />
  <path
     d="m -354.42516,-352.30951 v 22.76065 l -35.93207,-24.07632 z"
     style="fill:#eeeeee;fill-opacity:0.4"
     id="path274" />
  <path
     d="m -354.90058,-340.89667 v 4.94241 l -35.93207,-6.25808 z m -37.59712,-0.83371 v 4.94242 l 35.93206,-3.62675 z"
     style="fill:#99ddff;fill-opacity:0.4"
     id="path276" />
  <path
     d="m -474.62423,-327.4496 46.7487,1.71172 v -29.61229 z m 75.99201,-1.01967 8.27499,-2.39526 35.93207,1.31567 z"
     style="fill:#eeeeee;fill-opacity:0.4"
     id="path278" />
  <path
     d="m -356.56564,-340.41471 1.66506,-0.48196 -35.93207,-1.31567 z"
     style="fill:#99ddff;fill-opacity:0.4"
     id="path280" />
  <path
     d="m -354.42516,-352.30951 v 22.76065 m 0,0 -8.275,2.39525"
     style="fill:none;stroke:#000000;stroke-width:1;stroke-linecap:round"
     id="path282" />
  <path
     d="m -356.56564,-335.4723 -35.93206,-1.31566 37.59712,0.8337 z"
     style="fill:#99ddff;fill-opacity:0.4"
     id="path284" />
  <path
     d="m -354.90059,-340.89667 v 4.94241 m 0,0 -1.66505,0.48197 m 1.66505,-0.48197 26.46737,-1.49818 m -26.46736,-3.44423 v 4.94241 m 0,0 -1.66506,0.48196 m 2.14048,-16.83721 -8.275,2.39525 m 7.79957,9.01759 -1.66505,0.48196 m 1.66505,-0.48196 26.46737,3.44423 m -26.46736,-3.44423 -1.66506,0.48196"
     style="fill:none;stroke:#000000;stroke-width:1;stroke-linecap:round"
     id="path286" />
  <path
     d="m -392.4977,-336.78796 35.93206,1.31566 v -4.94241 z"
     style="fill:#99ddff;fill-opacity:0.4"
     id="path288" />
  <path
     d="m -427.87553,-355.35017 v 29.61229"
     style="fill:none;stroke:#000000;stroke-width:1;stroke-linecap:round"
     id="path290" />
  <path
     d="m -390.35723,-330.86453 -8.27499,2.39526 v -22.76066 z"
     style="fill:#eeeeee;fill-opacity:0.4"
     id="path292" />
  <path
     d="m -356.56564,-335.4723 1.66506,-0.48196 v -4.94241 z"
     style="fill:#99ddff;fill-opacity:0.4"
     id="path294" />
  <path
     d="m -354.90058,-340.89667 v 4.94241 l -1.66506,0.48196 z"
     style="fill:#ffbbbb;fill-opacity:0.4"
     id="path296" />
  <path
     d="m -356.56564,-340.41471 v 4.94241 l 1.66506,-5.42437 z"
     style="fill:#99ddff;fill-opacity:0.4"
     id="path298" />
  <path
     d="m -354.90058,-340.89667 -1.66506,5.42437 v -4.94241 z"
     style="fill:#ffbbbb;fill-opacity:0.4"
     id="path300" />
  <path
     d="m -362.70016,-349.91426 8.275,-2.39525 -35.93207,-1.31567 z"
     style="fill:#eeeeee;fill-opacity:0.4"
     id="path302" />
  <path
     d="m -356.56564,-335.47229 v -4.94242 m 0,4.94242 28.13242,-1.98015 m -28.13242,-2.96227 v 4.94241"
     style="fill:none;stroke:#000000;stroke-width:1;stroke-linecap:round"
     id="path304" />
  <path
     d="m -354.90058,-335.95426 v -4.94241 l 26.46736,3.44423 z"
     style="fill:#ffbbbb;fill-opacity:0.4"
     id="path306" />
  <path
     d="m -356.56564,-340.41471 28.13242,2.96227"
     style="fill:none;stroke:#000000;stroke-width:1;stroke-linecap:round"
     id="path308" />
  <path
     d="m -356.56564,-335.4723 1.66506,-0.48196 26.46736,-1.49818 z"
     style="fill:#ffbbbb;fill-opacity:0.4"
     id="path310" />
  <path
     d="m -362.70016,-327.15361 8.275,-2.39525 v -22.76065 z"
     style="fill:#eeeeee;fill-opacity:0.4"
     id="path312" />
  <path
     d="m -354.90058,-340.89667 -1.66506,0.48196 28.13242,2.96227 z"
     style="fill:#ffbbbb;fill-opacity:0.4"
     id="path314" />
  <path
     d="m -398.63222,-351.22993 35.93206,1.31567 -27.65707,-3.71092 z"
     style="fill:#eeeeee;fill-opacity:0.4"
     id="path316" />
  <path
     d="m -356.56564,-340.41471 v 4.94241 l 28.13242,-1.98014 z"
     style="fill:#ffbbbb;fill-opacity:0.4"
     id="path318" />
  <path
     d="m -398.63222,-351.22993 v 22.76066 m 0,0 35.93206,1.31566"
     style="fill:none;stroke:#000000;stroke-width:1;stroke-linecap:round"
     id="path320" />
  <path
     d="m -362.70016,-327.15361 -35.93206,-1.31566 44.20706,-1.07959 z"
     style="fill:#eeeeee;fill-opacity:0.4"
     id="path322" />
  <path
     d="m -398.63222,-351.22993 35.93206,1.31567 m 60.32549,19.22176 -25.11544,-0.91962 m 0,-15.90901 v 15.90902 m 0,0 -5.96675,1.72711 m 31.08219,-16.71652 -25.11544,-0.91961 m 0,0 -5.96675,1.72712"
     style="fill:none;stroke:#000000;stroke-width:1;stroke-linecap:round"
     id="path324" />
  <path
     d="m -398.63222,-351.22993 v 22.76066 l 35.93206,-21.44499 z m 35.93206,1.31567 v 22.76065 l 8.275,-25.1559 z m 60.32549,19.22176 -25.11544,-0.91961 v -15.90902 z m -96.25755,2.22323 35.93206,1.31566 v -22.76065 z m 71.14211,-19.05186 v 15.90902 l -5.96675,-14.1819 z m 25.11544,0.91961 v 15.90902 l -25.11544,-16.82863 z m -31.08219,16.71652 5.96675,-1.72712 25.11544,0.91962 z"
     style="fill:#eeeeee;fill-opacity:0.4"
     id="path326" />
  <path
     d="m -302.37467,-346.60152 v 15.90902 m 0,0 -5.96675,1.72711 m -54.35874,-20.94887 v 22.76065 m 60.32549,-19.44791 -5.96675,1.72712"
     style="fill:none;stroke:#000000;stroke-width:1;stroke-linecap:round"
     id="path328" />
  <path
     d="m -327.49011,-331.61211 -5.96675,1.72711 v -15.90901 z m 19.14869,-13.26229 5.96675,-1.72712 -25.11544,-0.91961 z m 0,15.90901 5.96675,-1.72711 v -15.90902 z m -25.11544,-16.82862 25.11544,0.91961 -19.14869,-2.64673 z"
     style="fill:#eeeeee;fill-opacity:0.4"
     id="path330" />
  <path
     d="m -333.45686,-345.79401 v 15.90901 m 0,0 25.11544,0.91961"
     style="fill:none;stroke:#000000;stroke-width:1;stroke-linecap:round"
     id="path332" />
  <path
     d="m -308.34142,-328.96539 -25.11544,-0.91961 31.08219,-0.8075 z"
     style="fill:#eeeeee;fill-opacity:0.4"
     id="path334" />
  <path
     d="m -333.45686,-345.79401 25.11544,0.91961 m 7.78887,7.2669 15.6051,0.57139"
     style="fill:none;stroke:#000000;stroke-width:1;stroke-linecap:round"
     id="path336" />
  <path
     d="m -333.45686,-345.79401 v 15.90901 l 25.11544,-14.9894 z m 25.11544,0.91961 v 15.90901 l 5.96675,-17.63613 z"
     style="fill:#eeeeee;fill-opacity:0.4"
     id="path338" />
  <path
     d="m -266.37978,-291.05498 -6.48998,-0.23763 m 0,-91.3552 v 91.3552 m 0,0 -2.30825,0.66814"
     style="fill:none;stroke:#000000;stroke-width:1;stroke-linecap:round"
     id="path340" />
  <path
     d="m -333.45686,-329.885 25.11544,0.91961 v -15.90901 z"
     style="fill:#eeeeee;fill-opacity:0.4"
     id="path342" />
  <path
     d="m -266.37978,-382.41017 v 91.35519 m 0,0 -2.30825,0.66814"
     style="fill:none;stroke:#000000;stroke-width:1;stroke-linecap:round"
     id="path344" />
  <path
     d="m -275.17801,-290.62447 2.30825,-0.66814 6.48998,0.23763 z m 8.79823,-0.43051 -6.48998,-0.23763 v -91.3552 z"
     style="fill:#eeeeee;fill-opacity:0.4"
     id="path346" />
  <path
     d="m -308.34142,-344.8744 v 15.90901"
     style="fill:none;stroke:#000000;stroke-width:1;stroke-linecap:round"
     id="path348" />
  <path
     d="m -284.13187,-340.60427 -1.63116,0.47215 10.17864,3.43884 z"
     style="fill:#000000"
     id="path350" />
  <path
     d="m -268.68803,-290.38684 -6.48998,-0.23763 8.79823,-0.43051 z"
     style="fill:#eeeeee;fill-opacity:0.4"
     id="path352" />
  <path
     d="m -286.26708,-335.38139 1.31963,2.46396 9.36306,-3.77585 z"
     style="fill:#000000"
     id="path354" />
  <path
     d="m -275.17801,-381.97967 v 91.3552 m 0,0 6.48998,0.23763"
     style="fill:none;stroke:#000000;stroke-width:1;stroke-linecap:round"
     id="path356" />
  <path
     d="m -285.76303,-340.13212 -0.50405,4.75073 10.68269,-1.31189 z"
     style="fill:#000000"
     id="path358" />
  <path
     d="m -272.86976,-291.29261 -2.30825,0.66814 v -91.3552 z m 4.18173,0.90577 2.30825,-0.66814 v -91.35519 z m 2.30825,-92.02333 v 91.35519 l -6.48998,-91.59283 z m -6.48998,-0.23764 v 91.3552 l -2.30825,-90.68706 z"
     style="fill:#eeeeee;fill-opacity:0.4"
     id="path360" />
  <path
     d="m -268.68803,-381.74203 v 91.35519 m 2.30825,-92.02333 -6.48998,-0.23764 m 0,0 -2.30825,0.66814 m 43.37739,106.30914 -6.48998,-0.23763 m 0,-119.59184 v 119.59184 m 0,0 -2.30825,0.66814 m -25.37454,-61.10135 15.60509,0.57139"
     style="fill:none;stroke:#000000;stroke-width:1;stroke-linecap:round"
     id="path362" />
  <path
     d="m -275.17801,-290.62447 6.48998,0.23763 v -91.35519 z"
     style="fill:#eeeeee;fill-opacity:0.4"
     id="path364" />
  <path
     d="m -266.37978,-382.41017 -2.30825,0.66814"
     style="fill:none;stroke:#000000;stroke-width:1;stroke-linecap:round"
     id="path366" />
  <path
     d="m -268.68803,-381.74203 v 91.35519 l 2.30825,-92.02333 z"
     style="fill:#eeeeee;fill-opacity:0.4"
     id="path368" />
  <path
     d="m -231.80062,-395.26237 v 119.59184 m 0,0 -2.30826,0.66814"
     style="fill:none;stroke:#000000;stroke-width:1;stroke-linecap:round"
     id="path370" />
  <path
     d="m -268.68803,-381.74203 2.30825,-0.66814 -6.48998,-0.23764 z m -6.48998,-0.23764 v 91.3552 l 6.48998,-91.11756 z m 34.57916,106.73965 2.30825,-0.66814 6.48998,0.23763 z m -34.57916,-106.73965 6.48998,0.23764 -4.18173,-0.90578 z m 43.37739,106.30914 -6.48998,-0.23763 V -395.5 Z"
     style="fill:#eeeeee;fill-opacity:0.4"
     id="path372" />
  <path
     d="m -275.17801,-381.97967 6.48998,0.23764"
     style="fill:none;stroke:#000000;stroke-width:1;stroke-linecap:round"
     id="path374" />
  <path
     d="m -234.10888,-275.00239 -6.48997,-0.23763 8.79823,-0.43051 z"
     style="fill:#eeeeee;fill-opacity:0.4"
     id="path376" />
  <path
     d="m -240.59885,-394.83186 v 119.59184 m 0,0 6.48997,0.23763"
     style="fill:none;stroke:#000000;stroke-width:1;stroke-linecap:round"
     id="path378" />
  <path
     d="m -249.55272,-339.33814 -1.63115,0.47215 10.17863,3.43884 z m -2.13521,5.22288 1.31963,2.46396 9.36306,-3.77585 z"
     style="fill:#000000"
     id="path380" />
  <path
     d="m -238.2906,-275.90816 -2.30825,0.66814 v -119.59184 z m 4.18172,0.90577 2.30826,-0.66814 v -119.59184 z"
     style="fill:#eeeeee;fill-opacity:0.4"
     id="path382" />
  <path
     d="m -251.18387,-338.86599 -0.50406,4.75073 10.68269,-1.31189 z"
     style="fill:#000000"
     id="path384" />
  <path
     d="m -234.10888,-394.59423 v 119.59184"
     style="fill:none;stroke:#000000;stroke-width:1;stroke-linecap:round"
     id="path386" />
  <path
     d="m -231.80062,-395.26237 v 119.59184 L -238.2906,-395.5 Z M -238.2906,-395.5 v 119.59184 l -2.30825,-118.9237 z m -2.30825,120.25998 6.48997,0.23763 v -119.59184 z"
     style="fill:#eeeeee;fill-opacity:0.4"
     id="path388" />
  <path
     d="M -231.80062,-395.26237 -238.2906,-395.5 m 0,0 -2.30825,0.66814 m 8.79823,-0.43051 -2.30826,0.66814"
     style="fill:none;stroke:#000000;stroke-width:1;stroke-linecap:round"
     id="path390" />
  <path
     d="m -234.10888,-394.59423 v 119.59184 l 2.30826,-120.25998 z m -6.48997,-0.23763 v 119.59184 l 6.48997,-119.35421 z m 6.48997,0.23763 2.30826,-0.66814 -6.48998,-0.23763 z m -6.48997,-0.23763 6.48997,0.23763 -4.18172,-0.90577 z"
     style="fill:#eeeeee;fill-opacity:0.4"
     id="path392" />
  <path
     d="m -240.59885,-394.83186 6.48997,0.23763"
     style="fill:none;stroke:#000000;stroke-width:1;stroke-linecap:round"
     id="path394" />
  <text
     xml:space="preserve"
     style="font-size:18.6667px;line-height:1.25;font-family:sans-serif"
     x="-754.57086"
     y="-311.43289"
     id="text4232"><tspan
       sodipodi:role="line"
       id="tspan4230"
       x="-754.57086"
       y="-311.43289" /></text>
  <text
     xml:space="preserve"
     style="font-size:13.3333px;line-height:1.25;font-family:sans-serif"
     x="-631.89417"
     y="-303.92117"
     id="text3594"><tspan
       sodipodi:role="line"
       id="tspan3592"
       x="-631.89417"
       y="-303.92117"
       style="font-size:13.3333px">32</tspan></text>
  <text
     xml:space="preserve"
     style="font-size:13.3333px;line-height:1.25;font-family:sans-serif"
     x="-538.99329"
     y="-303.92117"
     id="text3594-9"><tspan
       sodipodi:role="line"
       id="tspan3592-7"
       x="-538.99329"
       y="-303.92117"
       style="font-size:13.3333px">64</tspan></text>
  <text
     xml:space="preserve"
     style="font-size:13.3333px;line-height:1.25;font-family:sans-serif"
     x="-467.28436"
     y="-303.9407"
     id="text3594-9-4"><tspan
       sodipodi:role="line"
       id="tspan3592-7-1"
       x="-467.28436"
       y="-303.9407">128 </tspan></text>
  <text
     xml:space="preserve"
     style="font-size:13.3333px;line-height:1.25;font-family:sans-serif"
     x="-395.27216"
     y="-303.92117"
     id="text3594-9-4-6"><tspan
       sodipodi:role="line"
       id="tspan3592-7-1-3"
       x="-395.27216"
       y="-303.92117">256 </tspan></text>
  <text
     xml:space="preserve"
     style="font-size:13.3333px;line-height:1.25;font-family:sans-serif"
     x="-334.65967"
     y="-303.92117"
     id="text3594-9-4-6-8"><tspan
       sodipodi:role="line"
       id="tspan3592-7-1-3-9"
       x="-334.65967"
       y="-303.92117">256 </tspan></text>
  <text
     xml:space="preserve"
     style="font-size:13.3333px;line-height:1.25;font-family:sans-serif"
     x="-279.47067"
     y="-275.86389"
     id="text38912"><tspan
       sodipodi:role="line"
       id="tspan38910"
       x="-279.47067"
       y="-275.86389">64</tspan></text>
  <text
     xml:space="preserve"
     style="font-size:13.3333px;line-height:1.25;font-family:sans-serif"
     x="-253.03848"
     y="-261.83279"
     id="text38912-6"><tspan
       sodipodi:role="line"
       id="tspan38910-1"
       x="-253.03848"
       y="-261.83279">1421</tspan></text>
  <text
     xml:space="preserve"
     style="font-size:13.3333px;line-height:1.25;font-family:sans-serif"
     x="-736.4328"
     y="-306.40164"
     id="text60053"><tspan
       sodipodi:role="line"
       id="tspan60051"
       x="-736.4328"
       y="-306.40164">Input</tspan></text>
</svg>
